{
  "accessors": [
    {
      "bufferView": 2,
      "componentType": 5126,
      "count": 10098,
      "max": [
        348.4515380859375,
        25.686981201171875,
        350.6841125488281
      ],
      "min": [
        -348.4515380859375,
        -2.854109048843384,
        -350.6841125488281
      ],
      "type": "VEC3"
    },
    {
      "bufferView": 2,
      "byteOffset": 121176,
      "componentType": 5126,
      "count": 10098,
      "max": [
        0.9960396885871887,
        0.7081876993179321,
        0.9977678060531616
      ],
      "min": [
        -0.9967790842056274,
        -0.44308677315711975,
        -0.9945154786109924
      ],
      "type": "VEC3"
    },
    {
      "bufferView": 1,
      "componentType": 5126,
      "count": 10098,
      "max": [
        0.8131062388420105,
        0.3843843936920166
      ],
      "min": [
        0.813090980052948,
        0.3843691349029541
      ],
      "type": "VEC2"
    },
    {
      "bufferView": 0,
      "componentType": 5125,
      "count": 13770,
      "type": "SCALAR"
    },
    {
      "bufferView": 2,
      "byteOffset": 242352,
      "componentType": 5126,
      "count": 718,
      "max": [
        121.29933166503906,
        371.2335510253906,
        117.43244171142578
      ],
      "min": [
        -75.46649169921875,
        0.0,
        -31.859134674072266
      ],
      "type": "VEC3"
    },
    {
      "bufferView": 2,
      "byteOffset": 250968,
      "componentType": 5126,
      "count": 718,
      "max": [
        0.9973374605178833,
        1.0,
        0.9999906420707703
      ],
      "min": [
        -0.9563789367675781,
        -1.0,
        -0.9826785326004028
      ],
      "type": "VEC3"
    },
    {
      "bufferView": 1,
      "byteOffset": 80784,
      "componentType": 5126,
      "count": 718,
      "max": [
        0.15918785333633423,
        0.7750420570373535
      ],
      "min": [
        0.14788377285003662,
        0.7634727954864502
      ],
      "type": "VEC2"
    },
    {
      "bufferView": 0,
      "byteOffset": 55080,
      "componentType": 5125,
      "count": 1065,
      "type": "SCALAR"
    },
    {
      "bufferView": 2,
      "byteOffset": 259584,
      "componentType": 5126,
      "count": 242,
      "max": [
        395.1199951171875,
        31.340747833251953,
        395.1199951171875
      ],
      "min": [
        -395.1199951171875,
        -31.340747833251953,
        -395.1199951171875
      ],
      "type": "VEC3"
    },
    {
      "bufferView": 2,
      "byteOffset": 262488,
      "componentType": 5126,
      "count": 242,
      "max": [
        0.9238796234130859,
        1.0,
        0.9238796234130859
      ],
      "min": [
        -0.9238796234130859,
        -1.0,
        -0.9238796234130859
      ],
      "type": "VEC3"
    },
    {
      "bufferView": 1,
      "byteOffset": 86528,
      "componentType": 5126,
      "count": 242,
      "max": [
        0.9079238176345825,
        0.9708625674247742
      ],
      "min": [
        0.4332834780216217,
        0.7616667747497559
      ],
      "type": "VEC2"
    },
    {
      "bufferView": 0,
      "byteOffset": 59340,
      "componentType": 5125,
      "count": 384,
      "type": "SCALAR"
    },
    {
      "bufferView": 2,
      "byteOffset": 265392,
      "componentType": 5126,
      "count": 142,
      "max": [
        38.145843505859375,
        27.984619140625,
        74.1549301147461
      ],
      "min": [
        -38.145843505859375,
        0.0,
        -74.1549301147461
      ],
      "type": "VEC3"
    },
    {
      "bufferView": 2,
      "byteOffset": 267096,
      "componentType": 5126,
      "count": 142,
      "max": [
        0.6989630460739136,
        0.9993718266487122,
        0.4094727635383606
      ],
      "min": [
        -0.6029993295669556,
        0.71485835313797,
        -0.3785092830657959
      ],
      "type": "VEC3"
    },
    {
      "bufferView": 1,
      "byteOffset": 88464,
      "componentType": 5126,
      "count": 142,
      "max": [
        0.8937516212463379,
        0.7765659093856812
      ],
      "min": [
        0.8937363624572754,
        0.7765506505966187
      ],
      "type": "VEC2"
    },
    {
      "bufferView": 0,
      "byteOffset": 60876,
      "componentType": 5125,
      "count": 144,
      "type": "SCALAR"
    },
    {
      "bufferView": 2,
      "byteOffset": 268800,
      "componentType": 5126,
      "count": 685,
      "max": [
        9.17884635925293,
        54.7152214050293,
        1.7318115234375
      ],
      "min": [
        -9.17884635925293,
        -54.7152214050293,
        -1.7318115234375
      ],
      "type": "VEC3"
    },
    {
      "bufferView": 2,
      "byteOffset": 277020,
      "componentType": 5126,
      "count": 685,
      "max": [
        1.0,
        1.0,
        1.0
      ],
      "min": [
        -1.0,
        -1.0,
        -1.0
      ],
      "type": "VEC3"
    },
    {
      "bufferView": 1,
      "byteOffset": 89600,
      "componentType": 5126,
      "count": 685,
      "max": [
        0.9032484889030457,
        0.8742769956588745
      ],
      "min": [
        0.1328575164079666,
        0.0062258243560791016
      ],
      "type": "VEC2"
    },
    {
      "bufferView": 0,
      "byteOffset": 61452,
      "componentType": 5125,
      "count": 1110,
      "type": "SCALAR"
    },
    {
      "bufferView": 2,
      "byteOffset": 285240,
      "componentType": 5126,
      "count": 270,
      "max": [
        29.889711380004883,
        32.29501724243164,
        73.15690612792969
      ],
      "min": [
        -29.889711380004883,
        0.0,
        -73.15690612792969
      ],
      "type": "VEC3"
    },
    {
      "bufferView": 2,
      "byteOffset": 288480,
      "componentType": 5126,
      "count": 270,
      "max": [
        1.0,
        1.0,
        1.0
      ],
      "min": [
        -0.9998828768730164,
        -1.0,
        -1.0
      ],
      "type": "VEC3"
    },
    {
      "bufferView": 1,
      "byteOffset": 95080,
      "componentType": 5126,
      "count": 270,
      "max": [
        0.6212393641471863,
        0.780186116695404
      ],
      "min": [
        0.1450905203819275,
        0.6839211583137512
      ],
      "type": "VEC2"
    },
    {
      "bufferView": 0,
      "byteOffset": 65892,
      "componentType": 5125,
      "count": 504,
      "type": "SCALAR"
    },
    {
      "bufferView": 2,
      "byteOffset": 291720,
      "componentType": 5126,
      "count": 116,
      "max": [
        27.5,
        75.91737365722656,
        12.5
      ],
      "min": [
        -27.5,
        0.0,
        -12.5
      ],
      "type": "VEC3"
    },
    {
      "bufferView": 2,
      "byteOffset": 293112,
      "componentType": 5126,
      "count": 116,
      "max": [
        1.0,
        1.0,
        1.0
      ],
      "min": [
        -1.0,
        -1.0,
        -1.0
      ],
      "type": "VEC3"
    },
    {
      "bufferView": 1,
      "byteOffset": 97240,
      "componentType": 5126,
      "count": 116,
      "max": [
        0.5279440879821777,
        0.9588477611541748
      ],
      "min": [
        0.5254636406898499,
        0.9563213586807251
      ],
      "type": "VEC2"
    },
    {
      "bufferView": 0,
      "byteOffset": 67908,
      "componentType": 5125,
      "count": 174,
      "type": "SCALAR"
    },
    {
      "bufferView": 2,
      "byteOffset": 294504,
      "componentType": 5126,
      "count": 5516,
      "max": [
        79.63348388671875,
        252.798095703125,
        125.15888214111328
      ],
      "min": [
        -79.63348388671875,
        0.0,
        -125.15888214111328
      ],
      "type": "VEC3"
    },
    {
      "bufferView": 2,
      "byteOffset": 360696,
      "componentType": 5126,
      "count": 5516,
      "max": [
        1.0,
        1.0,
        1.0
      ],
      "min": [
        -1.0,
        -1.0,
        -1.0
      ],
      "type": "VEC3"
    },
    {
      "bufferView": 1,
      "byteOffset": 98168,
      "componentType": 5126,
      "count": 5516,
      "max": [
        0.9201006889343262,
        0.7877509593963623
      ],
      "min": [
        0.02203992009162903,
        0.2910722494125366
      ],
      "type": "VEC2"
    },
    {
      "bufferView": 0,
      "byteOffset": 68604,
      "componentType": 5125,
      "count": 10332,
      "type": "SCALAR"
    }
  ],
  "asset": {
    "extras": {
      "author": "Syoma Pozdeev (https://sketchfab.com/moldydoldy)",
      "license": "CC-BY-4.0 (http://creativecommons.org/licenses/by/4.0/)",
      "source": "https://sketchfab.com/3d-models/free-demo-of-low-poly-fantasy-halloween-3d-pack-a5714d1768184671a7793d793b846408",
      "title": "Free Demo of Low Poly Fantasy Halloween 3D Pack"
    },
    "generator": "Sketchfab-14.38.0",
    "version": "2.0"
  },
  "bufferViews": [
    {
      "buffer": 0,
      "byteLength": 109932,
      "name": "floatBufferViews",
      "target": 34963
    },
    {
      "buffer": 0,
      "byteLength": 142296,
      "byteOffset": 109932,
      "byteStride": 8,
      "name": "floatBufferViews",
      "target": 34962
    },
    {
      "buffer": 0,
      "byteLength": 426888,
      "byteOffset": 252228,
      "byteStride": 12,
      "name": "floatBufferViews",
      "target": 34962
    }
  ],
  "buffers": [
    {
      "byteLength": 679116,
      "uri": "scene.bin"
    }
  ],
  "images": [
    {
      "uri": "textures/Mat.1_baseColor.png"
    }
  ],
  "materials": [
    {
      "doubleSided": true,
      "name": "Mat.1",
      "pbrMetallicRoughness": {
        "baseColorTexture": {
          "index": 0
        },
        "metallicFactor": 0.0,
        "roughnessFactor": 0.6
      }
    }
  ],
  "meshes": [
    {
      "name": "Grass_Mat.1_0",
      "primitives": [
        {
          "attributes": {
            "NORMAL": 1,
            "POSITION": 0,
            "TEXCOORD_0": 2
          },
          "indices": 3,
          "material": 0,
          "mode": 4
        }
      ]
    },
    {
      "name": "Dead_Tree_1_Mat.1_0",
      "primitives": [
        {
          "attributes": {
            "NORMAL": 5,
            "POSITION": 4,
            "TEXCOORD_0": 6
          },
          "indices": 7,
          "material": 0,
          "mode": 4
        }
      ]
    },
    {
      "name": "Cylinder_Mat.1_0",
      "primitives": [
        {
          "attributes": {
            "NORMAL": 9,
            "POSITION": 8,
            "TEXCOORD_0": 10
          },
          "indices": 11,
          "material": 0,
          "mode": 4
        }
      ]
    },
    {
      "name": "Ground_Mat.1_0",
      "primitives": [
        {
          "attributes": {
            "NORMAL": 13,
            "POSITION": 12,
            "TEXCOORD_0": 14
          },
          "indices": 15,
          "material": 0,
          "mode": 4
        }
      ]
    },
    {
      "name": "Shovel_Mat.1_0",
      "primitives": [
        {
          "attributes": {
            "NORMAL": 17,
            "POSITION": 16,
            "TEXCOORD_0": 18
          },
          "indices": 19,
          "material": 0,
          "mode": 4
        }
      ]
    },
    {
      "name": "Coffin_1_Mat.1_0",
      "primitives": [
        {
          "attributes": {
            "NORMAL": 21,
            "POSITION": 20,
            "TEXCOORD_0": 22
          },
          "indices": 23,
          "material": 0,
          "mode": 4
        }
      ]
    },
    {
      "name": "Headstone_3_Mat.1_0",
      "primitives": [
        {
          "attributes": {
            "NORMAL": 25,
            "POSITION": 24,
            "TEXCOORD_0": 26
          },
          "indices": 27,
          "material": 0,
          "mode": 4
        }
      ]
    },
    {
      "name": "Crypt_3_Mat.1_0",
      "primitives": [
        {
          "attributes": {
            "NORMAL": 29,
            "POSITION": 28,
            "TEXCOORD_0": 30
          },
          "indices": 31,
          "material": 0,
          "mode": 4
        }
      ]
    }
  ],
  "nodes": [
    {
      "children": [
        1
      ],
      "matrix": [
        1.0,
        0.0,
        0.0,
        0.0,
        0.0,
        2.220446049250313e-16,
        -1.0,
        0.0,
        0.0,
        1.0,
        2.220446049250313e-16,
        0.0,
        0.0,
        0.0,
        0.0,
        1.0
      ],
      "name": "Sketchfab_model"
    },
    {
      "children": [
        2
      ],
      "matrix": [
        0.009999999776482582,
        0.0,
        0.0,
        0.0,
        0.0,
        0.0,
        0.009999999776482582,
        0.0,
        0.0,
        -0.009999999776482582,
        0.0,
        0.0,
        0.0,
        0.0,
        0.0,
        1.0
      ],
      "name": "13ba719fc4b64e01b2715a36d397c17c.fbx"
    },
    {
      "children": [
        3,
        5,
        7,
        9,
        11,
        13,
        15,
        17
      ],
      "name": "RootNode"
    },
    {
      "children": [
        4
      ],
      "matrix": [
        1.0,
        0.0,
        0.0,
        0.0,
        0.0,
        1.0,
        0.0,
        0.0,
        0.0,
        0.0,
        1.0,
        0.0,
        -25.31332015991211,
        -2.767569065093994,
        60.43903732299805,
        1.0
      ],
      "name": "Grass"
    },
    {
      "mesh": 0,
      "name": "Grass_Mat.1_0"
    },
    {
      "children": [
        6
      ],
      "matrix": [
        1.0,
        0.0,
        0.0,
        0.0,
        0.0,
        1.0,
        0.0,
        0.0,
        0.0,
        0.0,
        1.0,
        0.0,
        -250.65016174316406,
        0.0,
        42.714725494384766,
        1.0
      ],
      "name": "Dead_Tree_1"
    },
    {
      "mesh": 1,
      "name": "Dead_Tree_1_Mat.1_0"
    },
    {
      "children": [
        8
      ],
      "matrix": [
        2.220446049250313e-16,
        0.0,
        -1.0,
        0.0,
        0.0,
        1.0,
        0.0,
        0.0,
        1.0,
        0.0,
        2.220446049250313e-16,
        0.0,
        -12.489500999450684,
        -20.78518295288086,
        68.45376586914063,
        1.0
      ],
      "name": "Cylinder"
    },
    {
      "mesh": 2,
      "name": "Cylinder_Mat.1_0"
    },
    {
      "children": [
        10
      ],
      "matrix": [
        2.220446049250313e-16,
        0.0,
        1.0,
        0.0,
        0.0,
        1.0,
        0.0,
        0.0,
        -1.0,
        0.0,
        2.220446049250313e-16,
        0.0,
        14.684734344482422,
        -7.7615275382995605,
        -106.40351867675781,
        1.0
      ],
      "name": "Ground"
    },
    {
      "mesh": 3,
      "name": "Ground_Mat.1_0"
    },
    {
      "children": [
        12
      ],
      "matrix": [
        0.005966196388919598,
        -0.27649784376639147,
        -0.9609960181463736,
        0.0,
        0.05989545556461413,
        0.9593865206246107,
        -0.275662907273559,
        0.0,
        0.9981868256510683,
        -0.05591463526072263,
        0.022284852709950176,
        0.0,
        45.551673889160156,
        48.94395446777344,
        -125.50968933105469,
        1.0
      ],
      "name": "Shovel"
    },
    {
      "mesh": 4,
      "name": "Shovel_Mat.1_0"
    },
    {
      "children": [
        14
      ],
      "matrix": [
        -1.0,
        1.2246467991473535e-16,
        -1.224646799147353e-16,
        0.0,
        1.2246467991473535e-16,
        1.0,
        -1.2246467991473535e-16,
        0.0,
        1.224646799147353e-16,
        -1.2246467991473535e-16,
        -1.0,
        0.0,
        154.7040252685547,
        0.0,
        116.66020965576172,
        1.0
      ],
      "name": "Coffin_1"
    },
    {
      "mesh": 5,
      "name": "Coffin_1_Mat.1_0"
    },
    {
      "children": [
        16
      ],
      "matrix": [
        2.220446049250313e-16,
        0.0,
        -1.0,
        0.0,
        0.0,
        1.0,
        0.0,
        0.0,
        1.0,
        0.0,
        2.220446049250313e-16,
        0.0,
        -86.32649993896484,
        7.10542746348012e-16,
        -107.10258483886719,
        1.0
      ],
      "name": "Headstone_3"
    },
    {
      "mesh": 6,
      "name": "Headstone_3_Mat.1_0"
    },
    {
      "children": [
        18
      ],
      "matrix": [
        -1.0,
        1.2246467991473535e-16,
        -1.224646799147353e-16,
        0.0,
        1.2246467991473535e-16,
        1.0,
        -1.2246467991473535e-16,
        0.0,
        1.224646799147353e-16,
        -1.2246467991473535e-16,
        -1.0,
        0.0,
        -12.489500999450684,
        0.0,
        206.4529571533203,
        1.0
      ],
      "name": "Crypt_3"
    },
    {
      "mesh": 7,
      "name": "Crypt_3_Mat.1_0"
    }
  ],
  "samplers": [
    {
      "magFilter": 9729,
      "minFilter": 9987,
      "wrapS": 10497,
      "wrapT": 10497
    }
  ],
  "scene": 0,
  "scenes": [
    {
      "name": "Sketchfab_Scene",
      "nodes": [
        0
      ]
    }
  ],
  "textures": [
    {
      "sampler": 0,
      "source": 0
    }
  ]
}
