{
  "accessors": [
    {
      "bufferView": 2,
      "componentType": 5126,
      "count": 18561,
      "max": [
        4.984851360321045,
        5.34315824508667,
        0.31019389629364014
      ],
      "min": [
        -1.488203763961792,
        -3.0720629692077637,
        -3.7803735733032227
      ],
      "type": "VEC3"
    },
    {
      "bufferView": 2,
      "byteOffset": 222732,
      "componentType": 5126,
      "count": 18561,
      "max": [
        1.0,
        1.0,
        1.0
      ],
      "min": [
        -1.0,
        -1.0,
        -1.0
      ],
      "type": "VEC3"
    },
    {
      "bufferView": 1,
      "componentType": 5126,
      "count": 18561,
      "max": [
        1.5895663499832153,
        0.9926853179931641
      ],
      "min": [
        -0.5440875291824341,
        0.0
      ],
      "type": "VEC2"
    },
    {
      "bufferView": 1,
      "byteOffset": 148488,
      "componentType": 5126,
      "count": 18561,
      "max": [
        1.5895663499832153,
        0.9926853179931641
      ],
      "min": [
        -0.5440875291824341,
        0.0
      ],
      "type": "VEC2"
    },
    {
      "bufferView": 0,
      "componentType": 5125,
      "count": 30321,
      "type": "SCALAR"
    }
  ],
  "asset": {
    "extras": {
      "author": "ModelMaker (https://sketchfab.com/mireubay1)",
      "license": "CC-BY-4.0 (http://creativecommons.org/licenses/by/4.0/)",
      "source": "https://sketchfab.com/3d-models/game-ready-mid-poly-building-dc4f6a49d8a7462b9349936b8dc7256e",
      "title": "Game Ready Mid Poly Building"
    },
    "generator": "Sketchfab-14.83.0",
    "version": "2.0"
  },
  "bufferViews": [
    {
      "buffer": 0,
      "byteLength": 121284,
      "name": "floatBufferViews",
      "target": 34963
    },
    {
      "buffer": 0,
      "byteLength": 296976,
      "byteOffset": 121284,
      "byteStride": 8,
      "name": "floatBufferViews",
      "target": 34962
    },
    {
      "buffer": 0,
      "byteLength": 445464,
      "byteOffset": 418260,
      "byteStride": 12,
      "name": "floatBufferViews",
      "target": 34962
    }
  ],
  "buffers": [
    {
      "byteLength": 863724,
      "uri": "scene.bin"
    }
  ],
  "extensionsUsed": [
    "KHR_materials_specular"
  ],
  "images": [
    {
      "uri": "textures/Atlas_baseColor.png"
    },
    {
      "uri": "textures/Atlas_metallicRoughness.png"
    }
  ],
  "materials": [
    {
      "doubleSided": true,
      "extensions": {
        "KHR_materials_specular": {
          "specularColorFactor": [
            1.0,
            1.0,
            1.0
          ],
          "specularFactor": 1.0
        }
      },
      "name": "Atlas",
      "pbrMetallicRoughness": {
        "baseColorTexture": {
          "index": 0
        },
        "metallicRoughnessTexture": {
          "index": 1
        }
      }
    }
  ],
  "meshes": [
    {
      "name": "Plane.093_Atlas_0",
      "primitives": [
        {
          "attributes": {
            "NORMAL": 1,
            "POSITION": 0,
            "TEXCOORD_0": 2,
            "TEXCOORD_1": 3
          },
          "indices": 4,
          "material": 0,
          "mode": 4
        }
      ]
    }
  ],
  "nodes": [
    {
      "children": [
        1
      ],
      "matrix": [
        1.0,
        0.0,
        0.0,
        0.0,
        0.0,
        2.220446049250313e-16,
        -1.0,
        0.0,
        0.0,
        1.0,
        2.220446049250313e-16,
        0.0,
        0.0,
        0.0,
        0.0,
        1.0
      ],
      "name": "Sketchfab_model"
    },
    {
      "children": [
        2
      ],
      "matrix": [
        0.009999999776482582,
        0.0,
        0.0,
        0.0,
        0.0,
        0.0,
        0.009999999776482582,
        0.0,
        0.0,
        -0.009999999776482582,
        0.0,
        0.0,
        0.0,
        0.0,
        0.0,
        1.0
      ],
      "name": "4bb67e21d44a45649218c27e8bf35c05.fbx"
    },
    {
      "children": [
        3
      ],
      "name": "RootNode"
    },
    {
      "children": [
        4
      ],
      "matrix": [
        3.930187463760376,
        0.0,
        0.0,
        0.0,
        0.0,
        3.930187463760372,
        1.7179395026809955e-07,
        0.0,
        0.0,
        -1.7179395026809955e-07,
        3.930187463760372,
        0.0,
        -51.23640060424805,
        10.772184371948242,
        -3.3478057384490967,
        1.0
      ],
      "name": "Plane.093"
    },
    {
      "mesh": 0,
      "name": "Plane.093_Atlas_0"
    }
  ],
  "samplers": [
    {
      "magFilter": 9729,
      "minFilter": 9987,
      "wrapS": 10497,
      "wrapT": 10497
    }
  ],
  "scene": 0,
  "scenes": [
    {
      "name": "Sketchfab_Scene",
      "nodes": [
        0
      ]
    }
  ],
  "textures": [
    {
      "sampler": 0,
      "source": 0
    },
    {
      "sampler": 0,
      "source": 1
    }
  ]
}
