{
  "accessors": [
    {
      "bufferView": 2,
      "componentType": 5126,
      "count": 8796,
      "max": [
        2677.521484375,
        300.5470275878906,
        178.08071899414063
      ],
      "min": [
        -5894.20166015625,
        -4672.82568359375,
        -2.6232380867004395
      ],
      "type": "VEC3"
    },
    {
      "bufferView": 2,
      "byteOffset": 105552,
      "componentType": 5126,
      "count": 8796,
      "max": [
        1.0,
        1.0,
        1.0
      ],
      "min": [
        -1.0,
        -1.0,
        -1.0
      ],
      "type": "VEC3"
    },
    {
      "bufferView": 1,
      "componentType": 5126,
      "count": 8796,
      "max": [
        0.65625,
        1.0
      ],
      "min": [
        0.34375,
        0.0
      ],
      "type": "VEC2"
    },
    {
      "bufferView": 0,
      "componentType": 5125,
      "count": 16896,
      "type": "SCALAR"
    },
    {
      "bufferView": 2,
      "byteOffset": 211104,
      "componentType": 5126,
      "count": 643,
      "max": [
        1789.424560546875,
        2284.49267578125,
        175.16012573242188
      ],
      "min": [
        -2330.4619140625,
        -898.532470703125,
        -5.985184192657471
      ],
      "type": "VEC3"
    },
    {
      "bufferView": 2,
      "byteOffset": 218820,
      "componentType": 5126,
      "count": 643,
      "max": [
        1.0,
        1.0,
        1.0
      ],
      "min": [
        -1.0,
        -1.0,
        -1.0
      ],
      "type": "VEC3"
    },
    {
      "bufferView": 1,
      "byteOffset": 70368,
      "componentType": 5126,
      "count": 643,
      "max": [
        0.9666169881820679,
        0.9973949790000916
      ],
      "min": [
        0.0019290000200271606,
        0.0019920000340789557
      ],
      "type": "VEC2"
    },
    {
      "bufferView": 0,
      "byteOffset": 67584,
      "componentType": 5125,
      "count": 1440,
      "type": "SCALAR"
    },
    {
      "bufferView": 2,
      "byteOffset": 226536,
      "componentType": 5126,
      "count": 8663,
      "max": [
        2497.47900390625,
        -3494.504150390625,
        1440.150146484375
      ],
      "min": [
        -5716.955078125,
        -5002.50439453125,
        0.1502079963684082
      ],
      "type": "VEC3"
    },
    {
      "bufferView": 2,
      "byteOffset": 330492,
      "componentType": 5126,
      "count": 8663,
      "max": [
        1.0,
        1.0,
        1.0
      ],
      "min": [
        -1.0,
        -1.0,
        -1.0
      ],
      "type": "VEC3"
    },
    {
      "bufferView": 1,
      "byteOffset": 75512,
      "componentType": 5126,
      "count": 8663,
      "max": [
        1.0156569480895996,
        1.0006580352783203
      ],
      "min": [
        0.00215999991632998,
        0.004468000028282404
      ],
      "type": "VEC2"
    },
    {
      "bufferView": 0,
      "byteOffset": 73344,
      "componentType": 5125,
      "count": 21612,
      "type": "SCALAR"
    },
    {
      "bufferView": 2,
      "byteOffset": 434448,
      "componentType": 5126,
      "count": 287,
      "max": [
        -495.94830322265625,
        -2101.49755859375,
        450.4814453125
      ],
      "min": [
        -1195.9482421875,
        -3497.905029296875,
        0.48146098852157593
      ],
      "type": "VEC3"
    },
    {
      "bufferView": 2,
      "byteOffset": 437892,
      "componentType": 5126,
      "count": 287,
      "max": [
        1.0,
        1.0,
        1.0
      ],
      "min": [
        -1.0,
        -1.0,
        -1.0
      ],
      "type": "VEC3"
    },
    {
      "bufferView": 1,
      "byteOffset": 144816,
      "componentType": 5126,
      "count": 287,
      "max": [
        0.9918490052223206,
        0.9984059929847717
      ],
      "min": [
        0.08214399963617325,
        0.0023900000378489494
      ],
      "type": "VEC2"
    },
    {
      "bufferView": 0,
      "byteOffset": 159792,
      "componentType": 5125,
      "count": 576,
      "type": "SCALAR"
    },
    {
      "bufferView": 2,
      "byteOffset": 441336,
      "componentType": 5126,
      "count": 236,
      "max": [
        2683.673583984375,
        -321.44647216796875,
        16.165664672851563
      ],
      "min": [
        -5900.97900390625,
        -4680.6689453125,
        -0.15875199437141418
      ],
      "type": "VEC3"
    },
    {
      "bufferView": 2,
      "byteOffset": 444168,
      "componentType": 5126,
      "count": 236,
      "max": [
        1.0,
        1.0,
        1.0
      ],
      "min": [
        -1.0,
        -1.0,
        -0.9999967813491821
      ],
      "type": "VEC3"
    },
    {
      "bufferView": 1,
      "byteOffset": 147112,
      "componentType": 5126,
      "count": 236,
      "max": [
        0.875,
        0.5
      ],
      "min": [
        0.125,
        0.0
      ],
      "type": "VEC2"
    },
    {
      "bufferView": 0,
      "byteOffset": 162096,
      "componentType": 5125,
      "count": 384,
      "type": "SCALAR"
    },
    {
      "bufferView": 2,
      "byteOffset": 447000,
      "componentType": 5126,
      "count": 6013,
      "max": [
        1601.10888671875,
        2101.59423828125,
        1079.380859375
      ],
      "min": [
        -1706.89111328125,
        -2106.40576171875,
        -0.6192629933357239
      ],
      "type": "VEC3"
    },
    {
      "bufferView": 2,
      "byteOffset": 519156,
      "componentType": 5126,
      "count": 6013,
      "max": [
        1.0,
        1.0,
        1.0
      ],
      "min": [
        -1.0,
        -1.0,
        -1.0
      ],
      "type": "VEC3"
    },
    {
      "bufferView": 1,
      "byteOffset": 149000,
      "componentType": 5126,
      "count": 6013,
      "max": [
        1.0017759799957275,
        0.9991210103034973
      ],
      "min": [
        0.0067170001566410065,
        -0.0016159999649971724
      ],
      "type": "VEC2"
    },
    {
      "bufferView": 0,
      "byteOffset": 163632,
      "componentType": 5125,
      "count": 13542,
      "type": "SCALAR"
    },
    {
      "bufferView": 2,
      "byteOffset": 591312,
      "componentType": 5126,
      "count": 264,
      "max": [
        1388.798583984375,
        1182.4730224609375,
        1511.4359130859375
      ],
      "min": [
        -3861.094482421875,
        -4025.779541015625,
        1120.477783203125
      ],
      "type": "VEC3"
    },
    {
      "bufferView": 2,
      "byteOffset": 594480,
      "componentType": 5126,
      "count": 264,
      "max": [
        1.0,
        1.0,
        1.0
      ],
      "min": [
        -1.0,
        -1.0,
        -1.0
      ],
      "type": "VEC3"
    },
    {
      "bufferView": 1,
      "byteOffset": 197104,
      "componentType": 5126,
      "count": 264,
      "max": [
        0.9189239740371704,
        0.9980080127716064
      ],
      "min": [
        0.0018339999951422215,
        0.0019920000340789557
      ],
      "type": "VEC2"
    },
    {
      "bufferView": 0,
      "byteOffset": 217800,
      "componentType": 5125,
      "count": 396,
      "type": "SCALAR"
    },
    {
      "bufferView": 2,
      "byteOffset": 597648,
      "componentType": 5126,
      "count": 1320,
      "max": [
        1396.3553466796875,
        1189.4901123046875,
        1515.4571533203125
      ],
      "min": [
        -3868.6513671875,
        -4032.796630859375,
        979.0081787109375
      ],
      "type": "VEC3"
    },
    {
      "bufferView": 2,
      "byteOffset": 613488,
      "componentType": 5126,
      "count": 1320,
      "max": [
        1.0,
        1.0,
        1.0
      ],
      "min": [
        -1.0,
        -1.0,
        -1.0
      ],
      "type": "VEC3"
    },
    {
      "bufferView": 1,
      "byteOffset": 199216,
      "componentType": 5126,
      "count": 1320,
      "max": [
        0.875,
        1.0
      ],
      "min": [
        0.125,
        0.0
      ],
      "type": "VEC2"
    },
    {
      "bufferView": 0,
      "byteOffset": 219384,
      "componentType": 5125,
      "count": 1980,
      "type": "SCALAR"
    },
    {
      "bufferView": 2,
      "byteOffset": 629328,
      "componentType": 5126,
      "count": 1552,
      "max": [
        -1698.016845703125,
        912.8876342773438,
        600.10546875
      ],
      "min": [
        -2374.118408203125,
        -914.1171875,
        0.1054380014538765
      ],
      "type": "VEC3"
    },
    {
      "bufferView": 2,
      "byteOffset": 647952,
      "componentType": 5126,
      "count": 1552,
      "max": [
        1.0,
        1.0,
        1.0
      ],
      "min": [
        -1.0,
        -1.0,
        -1.0
      ],
      "type": "VEC3"
    },
    {
      "bufferView": 1,
      "byteOffset": 209776,
      "componentType": 5126,
      "count": 1552,
      "max": [
        0.8875340223312378,
        0.9666579961776733
      ],
      "min": [
        0.0013729999773204327,
        0.0018619999755173922
      ],
      "type": "VEC2"
    },
    {
      "bufferView": 0,
      "byteOffset": 227304,
      "componentType": 5125,
      "count": 4332,
      "type": "SCALAR"
    }
  ],
  "asset": {
    "extras": {
      "author": "swjeta (https://sketchfab.com/swjeta)",
      "license": "CC-BY-4.0 (http://creativecommons.org/licenses/by/4.0/)",
      "source": "https://sketchfab.com/3d-models/school-building-d34ac09a3ca544df999485c4b311abcc",
      "title": "school building"
    },
    "generator": "Sketchfab-12.67.0",
    "version": "2.0"
  },
  "bufferViews": [
    {
      "buffer": 0,
      "byteLength": 244632,
      "name": "floatBufferViews",
      "target": 34963
    },
    {
      "buffer": 0,
      "byteLength": 222192,
      "byteOffset": 244632,
      "byteStride": 8,
      "name": "floatBufferViews",
      "target": 34962
    },
    {
      "buffer": 0,
      "byteLength": 666576,
      "byteOffset": 466824,
      "byteStride": 12,
      "name": "floatBufferViews",
      "target": 34962
    }
  ],
  "buffers": [
    {
      "byteLength": 1133400,
      "uri": "scene.bin"
    }
  ],
  "images": [
    {
      "uri": "textures/lambert25SG_baseColor.png"
    },
    {
      "uri": "textures/lambert35SG_baseColor.png"
    },
    {
      "uri": "textures/lambert38SG_baseColor.png"
    },
    {
      "uri": "textures/lambert44SG_baseColor.png"
    },
    {
      "uri": "textures/lambert48SG_baseColor.png"
    },
    {
      "uri": "textures/lambert51SG_baseColor.png"
    }
  ],
  "materials": [
    {
      "doubleSided": true,
      "name": "lambert21SG",
      "pbrMetallicRoughness": {
        "baseColorFactor": [
          0.23,
          0.28,
          0.27,
          1.0
        ],
        "metallicFactor": 0.0
      }
    },
    {
      "doubleSided": true,
      "name": "lambert25SG",
      "pbrMetallicRoughness": {
        "baseColorTexture": {
          "index": 0
        },
        "metallicFactor": 0.0
      }
    },
    {
      "doubleSided": true,
      "name": "lambert35SG",
      "pbrMetallicRoughness": {
        "baseColorTexture": {
          "index": 1
        },
        "metallicFactor": 0.0
      }
    },
    {
      "doubleSided": true,
      "name": "lambert38SG",
      "pbrMetallicRoughness": {
        "baseColorTexture": {
          "index": 2
        },
        "metallicFactor": 0.0
      }
    },
    {
      "doubleSided": true,
      "name": "lambert42SG",
      "pbrMetallicRoughness": {
        "metallicFactor": 0.0
      }
    },
    {
      "doubleSided": true,
      "name": "lambert44SG",
      "pbrMetallicRoughness": {
        "baseColorTexture": {
          "index": 3
        },
        "metallicFactor": 0.0
      }
    },
    {
      "doubleSided": true,
      "name": "lambert47SG",
      "pbrMetallicRoughness": {
        "metallicFactor": 0.0
      }
    },
    {
      "doubleSided": true,
      "name": "lambert48SG",
      "pbrMetallicRoughness": {
        "baseColorTexture": {
          "index": 4
        },
        "metallicFactor": 0.0
      }
    },
    {
      "doubleSided": true,
      "name": "lambert51SG",
      "pbrMetallicRoughness": {
        "baseColorTexture": {
          "index": 5
        },
        "metallicFactor": 0.0
      }
    }
  ],
  "meshes": [
    {
      "name": "Object_0",
      "primitives": [
        {
          "attributes": {
            "NORMAL": 1,
            "POSITION": 0,
            "TEXCOORD_0": 2
          },
          "indices": 3,
          "material": 0,
          "mode": 4
        }
      ]
    },
    {
      "name": "Object_1",
      "primitives": [
        {
          "attributes": {
            "NORMAL": 5,
            "POSITION": 4,
            "TEXCOORD_0": 6
          },
          "indices": 7,
          "material": 1,
          "mode": 4
        }
      ]
    },
    {
      "name": "Object_2",
      "primitives": [
        {
          "attributes": {
            "NORMAL": 9,
            "POSITION": 8,
            "TEXCOORD_0": 10
          },
          "indices": 11,
          "material": 2,
          "mode": 4
        }
      ]
    },
    {
      "name": "Object_3",
      "primitives": [
        {
          "attributes": {
            "NORMAL": 13,
            "POSITION": 12,
            "TEXCOORD_0": 14
          },
          "indices": 15,
          "material": 3,
          "mode": 4
        }
      ]
    },
    {
      "name": "Object_4",
      "primitives": [
        {
          "attributes": {
            "NORMAL": 17,
            "POSITION": 16,
            "TEXCOORD_0": 18
          },
          "indices": 19,
          "material": 4,
          "mode": 4
        }
      ]
    },
    {
      "name": "Object_5",
      "primitives": [
        {
          "attributes": {
            "NORMAL": 21,
            "POSITION": 20,
            "TEXCOORD_0": 22
          },
          "indices": 23,
          "material": 5,
          "mode": 4
        }
      ]
    },
    {
      "name": "Object_6",
      "primitives": [
        {
          "attributes": {
            "NORMAL": 25,
            "POSITION": 24,
            "TEXCOORD_0": 26
          },
          "indices": 27,
          "material": 6,
          "mode": 4
        }
      ]
    },
    {
      "name": "Object_7",
      "primitives": [
        {
          "attributes": {
            "NORMAL": 29,
            "POSITION": 28,
            "TEXCOORD_0": 30
          },
          "indices": 31,
          "material": 7,
          "mode": 4
        }
      ]
    },
    {
      "name": "Object_8",
      "primitives": [
        {
          "attributes": {
            "NORMAL": 33,
            "POSITION": 32,
            "TEXCOORD_0": 34
          },
          "indices": 35,
          "material": 8,
          "mode": 4
        }
      ]
    }
  ],
  "nodes": [
    {
      "children": [
        1
      ],
      "matrix": [
        0.00030274823075160384,
        0.0,
        0.0,
        0.0,
        0.0,
        6.722361128899209e-20,
        -0.00030274823075160384,
        0.0,
        0.0,
        0.00030274823075160384,
        6.722361128899209e-20,
        0.0,
        0.0,
        0.0,
        0.0,
        1.0
      ],
      "name": "Sketchfab_model"
    },
    {
      "children": [
        2,
        3,
        4,
        5,
        6,
        7,
        8,
        9,
        10
      ],
      "name": "schol_19.obj.cleaner.materialmerger.gles"
    },
    {
      "mesh": 0,
      "name": "Object_2"
    },
    {
      "mesh": 1,
      "name": "Object_3"
    },
    {
      "mesh": 2,
      "name": "Object_4"
    },
    {
      "mesh": 3,
      "name": "Object_5"
    },
    {
      "mesh": 4,
      "name": "Object_6"
    },
    {
      "mesh": 5,
      "name": "Object_7"
    },
    {
      "mesh": 6,
      "name": "Object_8"
    },
    {
      "mesh": 7,
      "name": "Object_9"
    },
    {
      "mesh": 8,
      "name": "Object_10"
    }
  ],
  "samplers": [
    {
      "magFilter": 9729,
      "minFilter": 9987,
      "wrapS": 10497,
      "wrapT": 10497
    }
  ],
  "scene": 0,
  "scenes": [
    {
      "name": "Sketchfab_Scene",
      "nodes": [
        0
      ]
    }
  ],
  "textures": [
    {
      "sampler": 0,
      "source": 0
    },
    {
      "sampler": 0,
      "source": 1
    },
    {
      "sampler": 0,
      "source": 2
    },
    {
      "sampler": 0,
      "source": 3
    },
    {
      "sampler": 0,
      "source": 4
    },
    {
      "sampler": 0,
      "source": 5
    }
  ]
}
