{
    "asset" : {
        "generator" : "Khronos glTF Blender I/O v1.3.48",
        "version" : "2.0"
    },
    "scene" : 0,
    "scenes" : [
        {
            "name" : "Scene",
            "nodes" : [
                0
            ]
        }
    ],
    "nodes" : [
        {
            "mesh" : 0,
            "name" : "parking",
            "scale" : [
                6,
                6,
                6
            ]
        }
    ],
    "materials" : [
        {
            "doubleSided" : true,
            "emissiveFactor" : [
                0,
                0,
                0
            ],
            "name" : "building_grey.004",
            "pbrMetallicRoughness" : {
                "baseColorFactor" : [
                    0.19595938920974731,
                    0.19595938920974731,
                    0.19595938920974731,
                    1
                ],
                "metallicFactor" : 0,
                "roughnessFactor" : 0.800000011920929
            }
        },
        {
            "doubleSided" : true,
            "emissiveFactor" : [
                0,
                0,
                0
            ],
            "name" : "building_green2",
            "pbrMetallicRoughness" : {
                "baseColorFactor" : [
                    0.09374503046274185,
                    0.1522999107837677,
                    0.05099136009812355,
                    1
                ],
                "metallicFactor" : 0,
                "roughnessFactor" : 1
            }
        },
        {
            "doubleSided" : true,
            "emissiveFactor" : [
                0,
                0,
                0
            ],
            "name" : "building_white.001",
            "pbrMetallicRoughness" : {
                "baseColorFactor" : [
                    0.7356021404266357,
                    0.7356021404266357,
                    0.7356021404266357,
                    1
                ],
                "metallicFactor" : 0,
                "roughnessFactor" : 0.800000011920929
            }
        },
        {
            "doubleSided" : true,
            "emissiveFactor" : [
                0,
                0,
                0
            ],
            "name" : "tree_brown.002",
            "pbrMetallicRoughness" : {
                "baseColorFactor" : [
                    0.13285399973392487,
                    0.06583400070667267,
                    0.046220000833272934,
                    1
                ],
                "metallicFactor" : 0,
                "roughnessFactor" : 0.8536585569381714
            }
        },
        {
            "doubleSided" : true,
            "emissiveFactor" : [
                0,
                0,
                0
            ],
            "name" : "tree_green.002",
            "pbrMetallicRoughness" : {
                "baseColorFactor" : [
                    0.14483200013637543,
                    0.15231500566005707,
                    0.07046400010585785,
                    1
                ],
                "metallicFactor" : 0,
                "roughnessFactor" : 0.8536585569381714
            }
        },
        {
            "doubleSided" : true,
            "emissiveFactor" : [
                0,
                0,
                0
            ],
            "name" : "tree_rock.002",
            "pbrMetallicRoughness" : {
                "baseColorFactor" : [
                    1,
                    0.7238489985466003,
                    0.5405939817428589,
                    1
                ],
                "metallicFactor" : 0,
                "roughnessFactor" : 0.8414633870124817
            }
        }
    ],
    "meshes" : [
        {
            "name" : "parking",
            "primitives" : [
                {
                    "attributes" : {
                        "POSITION" : 0,
                        "NORMAL" : 1
                    },
                    "indices" : 2,
                    "material" : 0
                },
                {
                    "attributes" : {
                        "POSITION" : 3,
                        "NORMAL" : 4
                    },
                    "indices" : 5,
                    "material" : 1
                },
                {
                    "attributes" : {
                        "POSITION" : 6,
                        "NORMAL" : 7
                    },
                    "indices" : 8,
                    "material" : 2
                },
                {
                    "attributes" : {
                        "POSITION" : 9,
                        "NORMAL" : 10
                    },
                    "indices" : 11,
                    "material" : 3
                },
                {
                    "attributes" : {
                        "POSITION" : 12,
                        "NORMAL" : 13
                    },
                    "indices" : 14,
                    "material" : 4
                },
                {
                    "attributes" : {
                        "POSITION" : 15,
                        "NORMAL" : 16
                    },
                    "indices" : 17,
                    "material" : 5
                }
            ]
        }
    ],
    "accessors" : [
        {
            "bufferView" : 0,
            "componentType" : 5126,
            "count" : 92,
            "max" : [
                1,
                0.03194228932261467,
                1
            ],
            "min" : [
                -1,
                -0.003563125152140856,
                -1
            ],
            "type" : "VEC3"
        },
        {
            "bufferView" : 1,
            "componentType" : 5126,
            "count" : 92,
            "type" : "VEC3"
        },
        {
            "bufferView" : 2,
            "componentType" : 5123,
            "count" : 186,
            "type" : "SCALAR"
        },
        {
            "bufferView" : 3,
            "componentType" : 5126,
            "count" : 117,
            "max" : [
                1,
                0.03194228932261467,
                1
            ],
            "min" : [
                -1,
                0,
                -1
            ],
            "type" : "VEC3"
        },
        {
            "bufferView" : 4,
            "componentType" : 5126,
            "count" : 117,
            "type" : "VEC3"
        },
        {
            "bufferView" : 5,
            "componentType" : 5123,
            "count" : 246,
            "type" : "SCALAR"
        },
        {
            "bufferView" : 6,
            "componentType" : 5126,
            "count" : 864,
            "max" : [
                0.9208168387413025,
                0.0004561680252663791,
                0.810278594493866
            ],
            "min" : [
                -0.9208168387413025,
                -7.279125746606496e-09,
                -0.9671168327331543
            ],
            "type" : "VEC3"
        },
        {
            "bufferView" : 7,
            "componentType" : 5126,
            "count" : 864,
            "type" : "VEC3"
        },
        {
            "bufferView" : 8,
            "componentType" : 5123,
            "count" : 1296,
            "type" : "SCALAR"
        },
        {
            "bufferView" : 9,
            "componentType" : 5126,
            "count" : 8600,
            "max" : [
                1.0071680545806885,
                0.16928337514400482,
                0.7767046093940735
            ],
            "min" : [
                -0.9887945055961609,
                -0.006661698222160339,
                -1.0162742137908936
            ],
            "type" : "VEC3"
        },
        {
            "bufferView" : 10,
            "componentType" : 5126,
            "count" : 8600,
            "type" : "VEC3"
        },
        {
            "bufferView" : 11,
            "componentType" : 5123,
            "count" : 18450,
            "type" : "SCALAR"
        },
        {
            "bufferView" : 12,
            "componentType" : 5126,
            "count" : 7690,
            "max" : [
                1.0570651292800903,
                0.2719646692276001,
                0.7954578399658203
            ],
            "min" : [
                -1.0391700267791748,
                -0.006661698222160339,
                -1.0428229570388794
            ],
            "type" : "VEC3"
        },
        {
            "bufferView" : 13,
            "componentType" : 5126,
            "count" : 7690,
            "type" : "VEC3"
        },
        {
            "bufferView" : 14,
            "componentType" : 5123,
            "count" : 20160,
            "type" : "SCALAR"
        },
        {
            "bufferView" : 15,
            "componentType" : 5126,
            "count" : 425,
            "max" : [
                0.9542735815048218,
                0.033833879977464676,
                0.5910142064094543
            ],
            "min" : [
                -0.9710878133773804,
                -0.006661698222160339,
                -0.9736805558204651
            ],
            "type" : "VEC3"
        },
        {
            "bufferView" : 16,
            "componentType" : 5126,
            "count" : 425,
            "type" : "VEC3"
        },
        {
            "bufferView" : 17,
            "componentType" : 5123,
            "count" : 930,
            "type" : "SCALAR"
        }
    ],
    "bufferViews" : [
        {
            "buffer" : 0,
            "byteLength" : 1104,
            "byteOffset" : 0
        },
        {
            "buffer" : 0,
            "byteLength" : 1104,
            "byteOffset" : 1104
        },
        {
            "buffer" : 0,
            "byteLength" : 372,
            "byteOffset" : 2208
        },
        {
            "buffer" : 0,
            "byteLength" : 1404,
            "byteOffset" : 2580
        },
        {
            "buffer" : 0,
            "byteLength" : 1404,
            "byteOffset" : 3984
        },
        {
            "buffer" : 0,
            "byteLength" : 492,
            "byteOffset" : 5388
        },
        {
            "buffer" : 0,
            "byteLength" : 10368,
            "byteOffset" : 5880
        },
        {
            "buffer" : 0,
            "byteLength" : 10368,
            "byteOffset" : 16248
        },
        {
            "buffer" : 0,
            "byteLength" : 2592,
            "byteOffset" : 26616
        },
        {
            "buffer" : 0,
            "byteLength" : 103200,
            "byteOffset" : 29208
        },
        {
            "buffer" : 0,
            "byteLength" : 103200,
            "byteOffset" : 132408
        },
        {
            "buffer" : 0,
            "byteLength" : 36900,
            "byteOffset" : 235608
        },
        {
            "buffer" : 0,
            "byteLength" : 92280,
            "byteOffset" : 272508
        },
        {
            "buffer" : 0,
            "byteLength" : 92280,
            "byteOffset" : 364788
        },
        {
            "buffer" : 0,
            "byteLength" : 40320,
            "byteOffset" : 457068
        },
        {
            "buffer" : 0,
            "byteLength" : 5100,
            "byteOffset" : 497388
        },
        {
            "buffer" : 0,
            "byteLength" : 5100,
            "byteOffset" : 502488
        },
        {
            "buffer" : 0,
            "byteLength" : 1860,
            "byteOffset" : 507588
        }
    ],
    "buffers" : [
        {
            "byteLength" : 509448,
            "uri" : "data:application/octet-stream;base64,"
        }
    ]
}
