{
  "accessors": [
    {
      "bufferView": 2,
      "componentType": 5126,
      "count": 2920,
      "max": [
        0.7455825805664063,
        4.006185531616211,
        1.1759939193725586
      ],
      "min": [
        -84.74127197265625,
        -31.024242401123047,
        -0.16145455837249756
      ],
      "type": "VEC3"
    },
    {
      "bufferView": 2,
      "byteOffset": 35040,
      "componentType": 5126,
      "count": 2920,
      "max": [
        1.0,
        1.0,
        1.0
      ],
      "min": [
        -1.0,
        -1.0,
        -0.006897224113345146
      ],
      "type": "VEC3"
    },
    {
      "bufferView": 3,
      "componentType": 5126,
      "count": 2920,
      "max": [
        1.0,
        1.0,
        1.0,
        1.0
      ],
      "min": [
        -1.0,
        -1.0,
        -1.0,
        -1.0
      ],
      "type": "VEC4"
    },
    {
      "bufferView": 1,
      "componentType": 5126,
      "count": 2920,
      "max": [
        5.3622941970825195,
        0.9952561855316162
      ],
      "min": [
        -2.7758467197418213,
        -0.002812463790178299
      ],
      "type": "VEC2"
    },
    {
      "bufferView": 1,
      "byteOffset": 23360,
      "componentType": 5126,
      "count": 2920,
      "max": [
        5.3622941970825195,
        0.9952561855316162
      ],
      "min": [
        -2.7758467197418213,
        -0.002812463790178299
      ],
      "type": "VEC2"
    },
    {
      "bufferView": 1,
      "byteOffset": 46720,
      "componentType": 5126,
      "count": 2920,
      "max": [
        5.3622941970825195,
        0.9952561855316162
      ],
      "min": [
        -2.7758467197418213,
        -0.002812463790178299
      ],
      "type": "VEC2"
    },
    {
      "bufferView": 0,
      "componentType": 5125,
      "count": 5952,
      "type": "SCALAR"
    },
    {
      "bufferView": 2,
      "byteOffset": 70080,
      "componentType": 5126,
      "count": 7919,
      "max": [
        53.3504524230957,
        20.08496856689453,
        16.840856552124023
      ],
      "min": [
        -3.3065004348754883,
        -7.813814163208008,
        -14.757343292236328
      ],
      "type": "VEC3"
    },
    {
      "bufferView": 2,
      "byteOffset": 165108,
      "componentType": 5126,
      "count": 7919,
      "max": [
        1.0,
        1.0,
        1.0
      ],
      "min": [
        -1.0,
        -1.0,
        -1.0
      ],
      "type": "VEC3"
    },
    {
      "bufferView": 3,
      "byteOffset": 46720,
      "componentType": 5126,
      "count": 7919,
      "max": [
        1.0,
        1.0,
        1.0,
        1.0
      ],
      "min": [
        -1.0,
        -1.0,
        -1.0,
        -1.0
      ],
      "type": "VEC4"
    },
    {
      "bufferView": 1,
      "byteOffset": 70080,
      "componentType": 5126,
      "count": 7919,
      "max": [
        2.447172164916992,
        1.000348448753357
      ],
      "min": [
        -1.9834895133972168,
        -0.0027792146429419518
      ],
      "type": "VEC2"
    },
    {
      "bufferView": 1,
      "byteOffset": 133432,
      "componentType": 5126,
      "count": 7919,
      "max": [
        2.447172164916992,
        1.000348448753357
      ],
      "min": [
        -1.9834895133972168,
        -0.0027792146429419518
      ],
      "type": "VEC2"
    },
    {
      "bufferView": 1,
      "byteOffset": 196784,
      "componentType": 5126,
      "count": 7919,
      "max": [
        2.447172164916992,
        1.000348448753357
      ],
      "min": [
        -1.9834895133972168,
        -0.0027792146429419518
      ],
      "type": "VEC2"
    },
    {
      "bufferView": 0,
      "byteOffset": 23808,
      "componentType": 5125,
      "count": 10320,
      "type": "SCALAR"
    }
  ],
  "asset": {
    "extras": {
      "author": "akselmot (https://sketchfab.com/akselmot)",
      "license": "CC-BY-4.0 (http://creativecommons.org/licenses/by/4.0/)",
      "source": "https://sketchfab.com/3d-models/residential-building-with-parking-lot-ec9dd516b60343de95ca95f0ec0e3abf",
      "title": "Residential Building with Parking Lot"
    },
    "generator": "Sketchfab-12.59.0",
    "version": "2.0"
  },
  "bufferViews": [
    {
      "buffer": 0,
      "byteLength": 65088,
      "name": "floatBufferViews",
      "target": 34963
    },
    {
      "buffer": 0,
      "byteLength": 260136,
      "byteOffset": 65088,
      "byteStride": 8,
      "name": "floatBufferViews",
      "target": 34962
    },
    {
      "buffer": 0,
      "byteLength": 260136,
      "byteOffset": 325224,
      "byteStride": 12,
      "name": "floatBufferViews",
      "target": 34962
    },
    {
      "buffer": 0,
      "byteLength": 173424,
      "byteOffset": 585360,
      "byteStride": 16,
      "name": "floatBufferViews",
      "target": 34962
    }
  ],
  "buffers": [
    {
      "byteLength": 758784,
      "uri": "scene.bin"
    }
  ],
  "images": [
    {
      "uri": "textures/tex_2_baseColor.png"
    },
    {
      "uri": "textures/tex_2_metallicRoughness.png"
    },
    {
      "uri": "textures/tex_2_normal.png"
    },
    {
      "uri": "textures/texture_1_baseColor.png"
    },
    {
      "uri": "textures/texture_1_metallicRoughness.png"
    },
    {
      "uri": "textures/texture_1_normal.png"
    }
  ],
  "materials": [
    {
      "alphaMode": "BLEND",
      "doubleSided": true,
      "name": "tex_2",
      "normalTexture": {
        "index": 2
      },
      "pbrMetallicRoughness": {
        "baseColorTexture": {
          "index": 0
        },
        "metallicRoughnessTexture": {
          "index": 1
        }
      }
    },
    {
      "doubleSided": true,
      "name": "texture_1",
      "normalTexture": {
        "index": 5
      },
      "pbrMetallicRoughness": {
        "baseColorTexture": {
          "index": 3
        },
        "metallicRoughnessTexture": {
          "index": 4
        }
      }
    }
  ],
  "meshes": [
    {
      "name": "ground_tex_2_0",
      "primitives": [
        {
          "attributes": {
            "NORMAL": 1,
            "POSITION": 0,
            "TANGENT": 2,
            "TEXCOORD_0": 3,
            "TEXCOORD_1": 4,
            "TEXCOORD_2": 5
          },
          "indices": 6,
          "material": 0,
          "mode": 4
        }
      ]
    },
    {
      "name": "building_texture_1_0",
      "primitives": [
        {
          "attributes": {
            "NORMAL": 8,
            "POSITION": 7,
            "TANGENT": 9,
            "TEXCOORD_0": 10,
            "TEXCOORD_1": 11,
            "TEXCOORD_2": 12
          },
          "indices": 13,
          "material": 1,
          "mode": 4
        }
      ]
    }
  ],
  "nodes": [
    {
      "children": [
        1
      ],
      "matrix": [
        1.0,
        0.0,
        0.0,
        0.0,
        0.0,
        2.220446049250313e-16,
        -1.0,
        0.0,
        0.0,
        1.0,
        2.220446049250313e-16,
        0.0,
        0.0,
        0.0,
        0.0,
        1.0
      ],
      "name": "Sketchfab_model"
    },
    {
      "children": [
        2
      ],
      "matrix": [
        1.0,
        0.0,
        0.0,
        0.0,
        0.0,
        0.0,
        1.0,
        0.0,
        0.0,
        -1.0,
        0.0,
        0.0,
        0.0,
        0.0,
        0.0,
        1.0
      ],
      "name": "47a94b80529045c39c17af82d054a026.fbx"
    },
    {
      "children": [
        3,
        5
      ],
      "name": "RootNode"
    },
    {
      "children": [
        4
      ],
      "matrix": [
        100.0,
        0.0,
        0.0,
        0.0,
        0.0,
        -1.629206793918314e-05,
        -99.99999999999868,
        0.0,
        0.0,
        99.99999999999868,
        -1.629206793918314e-05,
        0.0,
        5771.94677734375,
        19.835939407348633,
        -2053.56787109375,
        1.0
      ],
      "name": "ground"
    },
    {
      "mesh": 0,
      "name": "ground_tex_2_0"
    },
    {
      "children": [
        6
      ],
      "matrix": [
        100.0,
        0.0,
        0.0,
        0.0,
        0.0,
        -1.629206793918314e-05,
        -99.99999999999868,
        0.0,
        0.0,
        99.99999999999868,
        -1.629206793918314e-05,
        0.0,
        0.0,
        1493.510498046875,
        0.0,
        1.0
      ],
      "name": "building"
    },
    {
      "mesh": 1,
      "name": "building_texture_1_0"
    }
  ],
  "samplers": [
    {
      "magFilter": 9729,
      "minFilter": 9987,
      "wrapS": 10497,
      "wrapT": 10497
    }
  ],
  "scene": 0,
  "scenes": [
    {
      "name": "Sketchfab_Scene",
      "nodes": [
        0
      ]
    }
  ],
  "textures": [
    {
      "sampler": 0,
      "source": 0
    },
    {
      "sampler": 0,
      "source": 1
    },
    {
      "sampler": 0,
      "source": 2
    },
    {
      "sampler": 0,
      "source": 3
    },
    {
      "sampler": 0,
      "source": 4
    },
    {
      "sampler": 0,
      "source": 5
    }
  ]
}
