{
  "accessors": [
    {
      "bufferView": 2,
      "componentType": 5126,
      "count": 6159,
      "max": [
        3.082442045211792,
        1.459794521331787,
        12.405882835388184
      ],
      "min": [
        -3.0821309089660645,
        -2.571479320526123,
        -0.04500865936279297
      ],
      "type": "VEC3"
    },
    {
      "bufferView": 2,
      "byteOffset": 73908,
      "componentType": 5126,
      "count": 6159,
      "max": [
        0.9999649524688721,
        0.9999936819076538,
        0.9999937415122986
      ],
      "min": [
        -0.9999649524688721,
        -0.9999999403953552,
        -0.9999991059303284
      ],
      "type": "VEC3"
    },
    {
      "bufferView": 3,
      "componentType": 5126,
      "count": 6159,
      "max": [
        0.9999919533729553,
        0.999943733215332,
        0.7311322689056396,
        1.0
      ],
      "min": [
        -1.0,
        -0.9999998807907104,
        -0.6767287254333496,
        -1.0
      ],
      "type": "VEC4"
    },
    {
      "bufferView": 1,
      "componentType": 5126,
      "count": 6159,
      "max": [
        0.9747971296310425,
        0.9738665819168091
      ],
      "min": [
        0.02540794014930725,
        0.019057735800743103
      ],
      "type": "VEC2"
    },
    {
      "bufferView": 1,
      "byteOffset": 49272,
      "componentType": 5126,
      "count": 6159,
      "max": [
        0.9747971296310425,
        0.9738665819168091
      ],
      "min": [
        0.02540794014930725,
        0.019057735800743103
      ],
      "type": "VEC2"
    },
    {
      "bufferView": 0,
      "componentType": 5125,
      "count": 35376,
      "type": "SCALAR"
    }
  ],
  "asset": {
    "extras": {
      "author": "Tirto.Suwondo (https://sketchfab.com/Tirto.Suwondo)",
      "license": "CC-BY-4.0 (http://creativecommons.org/licenses/by/4.0/)",
      "source": "https://sketchfab.com/3d-models/easter-island-moai-ed46ca07ded04a61af7be9fcd6ed889c",
      "title": "Easter Island Moai"
    },
    "generator": "Sketchfab-13.79.0",
    "version": "2.0"
  },
  "bufferViews": [
    {
      "buffer": 0,
      "byteLength": 141504,
      "name": "floatBufferViews",
      "target": 34963
    },
    {
      "buffer": 0,
      "byteLength": 98544,
      "byteOffset": 141504,
      "byteStride": 8,
      "name": "floatBufferViews",
      "target": 34962
    },
    {
      "buffer": 0,
      "byteLength": 147816,
      "byteOffset": 240048,
      "byteStride": 12,
      "name": "floatBufferViews",
      "target": 34962
    },
    {
      "buffer": 0,
      "byteLength": 98544,
      "byteOffset": 387864,
      "byteStride": 16,
      "name": "floatBufferViews",
      "target": 34962
    }
  ],
  "buffers": [
    {
      "byteLength": 486408,
      "uri": "scene.bin"
    }
  ],
  "images": [
    {
      "uri": "textures/Moai_baseColor.png"
    },
    {
      "uri": "textures/Moai_metallicRoughness.png"
    },
    {
      "uri": "textures/Moai_normal.png"
    }
  ],
  "materials": [
    {
      "doubleSided": true,
      "name": "Moai",
      "normalTexture": {
        "index": 2
      },
      "occlusionTexture": {
        "index": 1
      },
      "pbrMetallicRoughness": {
        "baseColorTexture": {
          "index": 0
        },
        "metallicFactor": 0.0,
        "metallicRoughnessTexture": {
          "index": 1
        }
      }
    }
  ],
  "meshes": [
    {
      "name": "Moai_Moai_0",
      "primitives": [
        {
          "attributes": {
            "NORMAL": 1,
            "POSITION": 0,
            "TANGENT": 2,
            "TEXCOORD_0": 3,
            "TEXCOORD_1": 4
          },
          "indices": 5,
          "material": 0,
          "mode": 4
        }
      ]
    }
  ],
  "nodes": [
    {
      "children": [
        1
      ],
      "matrix": [
        1.0,
        0.0,
        0.0,
        0.0,
        0.0,
        2.220446049250313e-16,
        -1.0,
        0.0,
        0.0,
        1.0,
        2.220446049250313e-16,
        0.0,
        0.0,
        0.0,
        0.0,
        1.0
      ],
      "name": "Sketchfab_model"
    },
    {
      "children": [
        2
      ],
      "matrix": [
        1.0,
        0.0,
        0.0,
        0.0,
        0.0,
        0.0,
        1.0,
        0.0,
        0.0,
        -1.0,
        0.0,
        0.0,
        0.0,
        0.0,
        0.0,
        1.0
      ],
      "name": "Moai low.fbx"
    },
    {
      "children": [
        3
      ],
      "name": "RootNode"
    },
    {
      "children": [
        4
      ],
      "matrix": [
        1.0,
        0.0,
        0.0,
        0.0,
        0.0,
        -1.6292067939183141e-07,
        -0.9999999999999868,
        0.0,
        0.0,
        0.9999999999999868,
        -1.6292067939183141e-07,
        0.0,
        0.0,
        0.0,
        0.0,
        1.0
      ],
      "name": "Moai"
    },
    {
      "mesh": 0,
      "name": "Moai_Moai_0"
    }
  ],
  "samplers": [
    {
      "magFilter": 9729,
      "minFilter": 9987,
      "wrapS": 10497,
      "wrapT": 10497
    }
  ],
  "scene": 0,
  "scenes": [
    {
      "name": "Sketchfab_Scene",
      "nodes": [
        0
      ]
    }
  ],
  "textures": [
    {
      "sampler": 0,
      "source": 0
    },
    {
      "sampler": 0,
      "source": 1
    },
    {
      "sampler": 0,
      "source": 2
    }
  ]
}
