{
  "accessors": [
    {
      "bufferView": 3,
      "componentType": 5126,
      "count": 65534,
      "max": [
        5.0,
        8.218827247619629,
        4.999999523162842
      ],
      "min": [
        -5.0,
        -7.683095191168832e-07,
        -5.000000476837158
      ],
      "type": "VEC3"
    },
    {
      "bufferView": 3,
      "byteOffset": 786408,
      "componentType": 5126,
      "count": 65534,
      "max": [
        1.0,
        1.0,
        1.0
      ],
      "min": [
        -1.0,
        -1.0,
        -1.0
      ],
      "type": "VEC3"
    },
    {
      "bufferView": 4,
      "componentType": 5126,
      "count": 65534,
      "max": [
        1.0,
        1.0,
        1.0,
        1.0
      ],
      "min": [
        -1.0,
        -1.0,
        -0.9999962449073792,
        -1.0
      ],
      "type": "VEC4"
    },
    {
      "bufferView": 2,
      "componentType": 5126,
      "count": 65534,
      "max": [
        0.996658444404602,
        0.997298538684845
      ],
      "min": [
        0.003463258035480976,
        0.0025893670972436666
      ],
      "type": "VEC2"
    },
    {
      "bufferView": 1,
      "componentType": 5125,
      "count": 129837,
      "type": "SCALAR"
    },
    {
      "bufferView": 3,
      "byteOffset": 1572816,
      "componentType": 5126,
      "count": 27435,
      "max": [
        4.011329174041748,
        2.171858549118042,
        3.84714412689209
      ],
      "min": [
        -3.9178199768066406,
        0.6217502355575562,
        -3.934643030166626
      ],
      "type": "VEC3"
    },
    {
      "bufferView": 3,
      "byteOffset": 1902036,
      "componentType": 5126,
      "count": 27435,
      "max": [
        0.9999954700469971,
        0.9565622210502625,
        0.9999953508377075
      ],
      "min": [
        -0.9999954700469971,
        -0.9565592408180237,
        -0.9999953508377075
      ],
      "type": "VEC3"
    },
    {
      "bufferView": 4,
      "byteOffset": 1048544,
      "componentType": 5126,
      "count": 27435,
      "max": [
        0.9999953508377075,
        0.7031661868095398,
        0.9999954700469971,
        1.0
      ],
      "min": [
        -0.9999578595161438,
        -0.9939476847648621,
        -0.9999954700469971,
        1.0
      ],
      "type": "VEC4"
    },
    {
      "bufferView": 2,
      "byteOffset": 524272,
      "componentType": 5126,
      "count": 27435,
      "max": [
        0.8496255874633789,
        0.940153956413269
      ],
      "min": [
        3.269369335612282e-05,
        0.2658276855945587
      ],
      "type": "VEC2"
    },
    {
      "bufferView": 1,
      "byteOffset": 519348,
      "componentType": 5125,
      "count": 41151,
      "type": "SCALAR"
    },
    {
      "bufferView": 5,
      "componentType": 5126,
      "count": 4,
      "max": [
        100.0,
        1.0000001192092896,
        0.0,
        0.0,
        0.0,
        100.0,
        1.0,
        0.0,
        1.0,
        0.0,
        100.0,
        0.0,
        0.0,
        0.0,
        0.0,
        1.0
      ],
      "min": [
        4.371138828673793e-08,
        0.0,
        -6.123234262925839e-17,
        0.0,
        0.0,
        6.123234262925839e-17,
        0.0,
        0.0,
        0.0,
        -4.371139183945161e-08,
        2.6765506200124328e-24,
        0.0,
        0.0,
        -6.123234262925839e-17,
        -1.0,
        1.0
      ],
      "type": "MAT4"
    },
    {
      "bufferView": 0,
      "componentType": 5123,
      "count": 65534,
      "type": "VEC4"
    },
    {
      "bufferView": 4,
      "byteOffset": 1487504,
      "componentType": 5126,
      "count": 65534,
      "max": [
        1.0,
        0.0,
        0.0,
        0.0
      ],
      "min": [
        1.0,
        0.0,
        0.0,
        0.0
      ],
      "type": "VEC4"
    },
    {
      "bufferView": 0,
      "byteOffset": 524272,
      "componentType": 5123,
      "count": 27435,
      "type": "VEC4"
    },
    {
      "bufferView": 4,
      "byteOffset": 2536048,
      "componentType": 5126,
      "count": 27435,
      "max": [
        1.0,
        0.0,
        0.0,
        0.0
      ],
      "min": [
        1.0,
        0.0,
        0.0,
        0.0
      ],
      "type": "VEC4"
    },
    {
      "bufferView": 6,
      "componentType": 5126,
      "count": 120,
      "max": [
        3.9666666984558105
      ],
      "min": [
        0.0
      ],
      "type": "SCALAR"
    },
    {
      "bufferView": 7,
      "componentType": 5126,
      "count": 120,
      "max": [
        0.4996757507324219,
        0.7071037888526917,
        0.7071033120155334,
        0.7070404291152954
      ],
      "min": [
        -0.7070396542549133,
        -0.5,
        -0.4999999403953552,
        -0.4996645152568817
      ],
      "type": "VEC4"
    }
  ],
  "animations": [
    {
      "channels": [
        {
          "sampler": 0,
          "target": {
            "node": 12,
            "path": "rotation"
          }
        }
      ],
      "name": "Armature|ArmatureAction",
      "samplers": [
        {
          "input": 15,
          "interpolation": "LINEAR",
          "output": 16
        }
      ]
    }
  ],
  "asset": {
    "extras": {
      "author": "Periklis (https://sketchfab.com/periklis)",
      "license": "CC-BY-4.0 (http://creativecommons.org/licenses/by/4.0/)",
      "source": "https://sketchfab.com/3d-models/carousel-9c3d212732504dacba458ae5b734ad97",
      "title": "Carousel"
    },
    "generator": "Sketchfab-12.67.0",
    "version": "2.0"
  },
  "bufferViews": [
    {
      "buffer": 0,
      "byteLength": 743752,
      "byteStride": 8,
      "name": "shortBufferViews",
      "target": 34962
    },
    {
      "buffer": 0,
      "byteLength": 683952,
      "byteOffset": 743752,
      "name": "floatBufferViews",
      "target": 34963
    },
    {
      "buffer": 0,
      "byteLength": 743752,
      "byteOffset": 1427704,
      "byteStride": 8,
      "name": "floatBufferViews",
      "target": 34962
    },
    {
      "buffer": 0,
      "byteLength": 2231256,
      "byteOffset": 2171456,
      "byteStride": 12,
      "name": "floatBufferViews",
      "target": 34962
    },
    {
      "buffer": 0,
      "byteLength": 2975008,
      "byteOffset": 4402712,
      "byteStride": 16,
      "name": "floatBufferViews",
      "target": 34962
    },
    {
      "buffer": 0,
      "byteLength": 256,
      "byteOffset": 7377720,
      "name": "floatBufferViews"
    },
    {
      "buffer": 0,
      "byteLength": 480,
      "byteOffset": 7377976,
      "name": "floatBufferViews"
    },
    {
      "buffer": 0,
      "byteLength": 1920,
      "byteOffset": 7378456,
      "byteStride": 16,
      "name": "floatBufferViews"
    }
  ],
  "buffers": [
    {
      "byteLength": 7380376,
      "uri": "scene.bin"
    }
  ],
  "extensionsRequired": [
    "KHR_materials_pbrSpecularGlossiness"
  ],
  "extensionsUsed": [
    "KHR_materials_pbrSpecularGlossiness"
  ],
  "images": [
    {
      "uri": "textures/Material_diffuse.png"
    },
    {
      "uri": "textures/Material_specularGlossiness.png"
    },
    {
      "uri": "textures/Material_normal.png"
    }
  ],
  "materials": [
    {
      "doubleSided": true,
      "extensions": {
        "KHR_materials_pbrSpecularGlossiness": {
          "diffuseFactor": [
            1.0,
            1.0,
            1.0,
            1.0
          ],
          "diffuseTexture": {
            "index": 0
          },
          "glossinessFactor": 1.0,
          "specularFactor": [
            0.0,
            0.0,
            0.0
          ],
          "specularGlossinessTexture": {
            "index": 1
          }
        }
      },
      "name": "Material",
      "normalTexture": {
        "index": 2
      }
    }
  ],
  "meshes": [
    {
      "name": "CarouselBody_Material_0",
      "primitives": [
        {
          "attributes": {
            "JOINTS_0": 11,
            "NORMAL": 1,
            "POSITION": 0,
            "TANGENT": 2,
            "TEXCOORD_0": 3,
            "WEIGHTS_0": 12
          },
          "indices": 4,
          "material": 0,
          "mode": 4
        }
      ]
    },
    {
      "name": "CarouselBody_Material_0",
      "primitives": [
        {
          "attributes": {
            "JOINTS_0": 13,
            "NORMAL": 6,
            "POSITION": 5,
            "TANGENT": 7,
            "TEXCOORD_0": 8,
            "WEIGHTS_0": 14
          },
          "indices": 9,
          "material": 0,
          "mode": 4
        }
      ]
    }
  ],
  "nodes": [
    {
      "children": [
        1
      ],
      "matrix": [
        1.0,
        0.0,
        0.0,
        0.0,
        0.0,
        2.220446049250313e-16,
        -1.0,
        0.0,
        0.0,
        1.0,
        2.220446049250313e-16,
        0.0,
        0.0,
        0.0,
        0.0,
        1.0
      ],
      "name": "Sketchfab_model"
    },
    {
      "children": [
        2
      ],
      "matrix": [
        1.0,
        0.0,
        0.0,
        0.0,
        0.0,
        0.0,
        1.0,
        0.0,
        0.0,
        -1.0,
        0.0,
        0.0,
        0.0,
        0.0,
        0.0,
        1.0
      ],
      "name": "4e3e7e89ea8e4884808d0527f3a13c02.fbx"
    },
    {
      "children": [
        3
      ],
      "name": "Object_2"
    },
    {
      "children": [
        4,
        5
      ],
      "name": "RootNode"
    },
    {
      "name": "CarouselBody",
      "rotation": [
        -0.7071068286895752,
        0.0,
        0.0,
        0.7071067094802856
      ],
      "scale": [
        100.0,
        100.0,
        100.0
      ]
    },
    {
      "children": [
        6
      ],
      "name": "Armature",
      "rotation": [
        -0.7071068286895752,
        0.0,
        0.0,
        0.7071067094802856
      ],
      "scale": [
        100.0,
        100.0,
        100.0
      ]
    },
    {
      "children": [
        7,
        9,
        10,
        8
      ],
      "name": "Object_6"
    },
    {
      "children": [
        11
      ],
      "name": "_rootJoint"
    },
    {
      "matrix": [
        100.0,
        0.0,
        0.0,
        0.0,
        0.0,
        6.123233995736766e-15,
        -100.0,
        0.0,
        0.0,
        100.0,
        6.123233995736766e-15,
        0.0,
        0.0,
        0.0,
        0.0,
        1.0
      ],
      "name": "Object_8"
    },
    {
      "mesh": 0,
      "name": "Object_9",
      "skin": 0
    },
    {
      "mesh": 1,
      "name": "Object_10",
      "skin": 0
    },
    {
      "children": [
        12
      ],
      "name": "Bone_00",
      "rotation": [
        0.7071068286895752,
        0.0,
        0.0,
        0.7071067094802856
      ]
    },
    {
      "children": [
        13
      ],
      "name": "Bone.001_01",
      "rotation": [
        -0.5,
        -0.5,
        -0.4999999701976776,
        0.5000000596046448
      ],
      "scale": [
        1.0,
        0.9999999403953552,
        1.0
      ],
      "translation": [
        0.0,
        1.0,
        0.0
      ]
    },
    {
      "name": "Bone.001_end_02",
      "rotation": [
        3.2092161272732112e-24,
        -7.888609052210118e-31,
        -6.617444900424222e-24,
        1.0
      ],
      "translation": [
        -1.2924697685031227e-30,
        2.2588207721710205,
        0.0
      ]
    }
  ],
  "samplers": [
    {
      "magFilter": 9729,
      "minFilter": 9987,
      "wrapS": 10497,
      "wrapT": 10497
    }
  ],
  "scene": 0,
  "scenes": [
    {
      "name": "Sketchfab_Scene",
      "nodes": [
        0
      ]
    }
  ],
  "skins": [
    {
      "inverseBindMatrices": 10,
      "joints": [
        7,
        11,
        12,
        13
      ],
      "skeleton": 7
    }
  ],
  "textures": [
    {
      "sampler": 0,
      "source": 0
    },
    {
      "sampler": 0,
      "source": 1
    },
    {
      "sampler": 0,
      "source": 2
    }
  ]
}
