{
  "accessors": [
    {
      "bufferView": 2,
      "componentType": 5126,
      "count": 272,
      "max": [
        1.5441055297851563,
        0.11035916209220886,
        2.0327556133270264
      ],
      "min": [
        -1.3601428270339966,
        -0.11035916209220886,
        -2.0982511043548584
      ],
      "type": "VEC3"
    },
    {
      "bufferView": 2,
      "byteOffset": 3264,
      "componentType": 5126,
      "count": 272,
      "max": [
        0.9994981288909912,
        1.0,
        0.999869704246521
      ],
      "min": [
        -0.9684827923774719,
        -1.0,
        -0.9971085786819458
      ],
      "type": "VEC3"
    },
    {
      "bufferView": 3,
      "componentType": 5126,
      "count": 272,
      "max": [
        1.0,
        0.9994981288909912,
        0.7791057825088501,
        1.0
      ],
      "min": [
        -1.0,
        -0.999498188495636,
        -0.7071067690849304,
        -1.0
      ],
      "type": "VEC4"
    },
    {
      "bufferView": 1,
      "componentType": 5126,
      "count": 272,
      "max": [
        1.0,
        1.0
      ],
      "min": [
        0.0,
        0.0
      ],
      "type": "VEC2"
    },
    {
      "bufferView": 1,
      "byteOffset": 2176,
      "componentType": 5126,
      "count": 272,
      "max": [
        0.9963861703872681,
        1.0009796619415283
      ],
      "min": [
        0.0,
        -0.007464452646672726
      ],
      "type": "VEC2"
    },
    {
      "bufferView": 1,
      "byteOffset": 4352,
      "componentType": 5126,
      "count": 272,
      "max": [
        3.321965217590332,
        5.032747268676758
      ],
      "min": [
        -2.227783203125,
        -4.030625343322754
      ],
      "type": "VEC2"
    },
    {
      "bufferView": 1,
      "byteOffset": 6528,
      "componentType": 5126,
      "count": 272,
      "max": [
        0.9963861703872681,
        1.0009796619415283
      ],
      "min": [
        0.0,
        -0.007464452646672726
      ],
      "type": "VEC2"
    },
    {
      "bufferView": 0,
      "componentType": 5125,
      "count": 708,
      "type": "SCALAR"
    },
    {
      "bufferView": 2,
      "byteOffset": 6528,
      "componentType": 5126,
      "count": 648,
      "max": [
        1.0219917297363281,
        1.5421559810638428,
        1.3945412824512005e-08
      ],
      "min": [
        -1.0,
        -1.3190338611602783,
        -0.14240264892578125
      ],
      "type": "VEC3"
    },
    {
      "bufferView": 2,
      "byteOffset": 14304,
      "componentType": 5126,
      "count": 648,
      "max": [
        1.0,
        1.0,
        1.0
      ],
      "min": [
        -1.0,
        -1.0,
        -1.0
      ],
      "type": "VEC3"
    },
    {
      "bufferView": 1,
      "byteOffset": 8704,
      "componentType": 5126,
      "count": 648,
      "max": [
        1.0,
        0.8357142806053162
      ],
      "min": [
        0.0,
        0.16428571939468384
      ],
      "type": "VEC2"
    },
    {
      "bufferView": 0,
      "byteOffset": 2832,
      "componentType": 5125,
      "count": 972,
      "type": "SCALAR"
    }
  ],
  "asset": {
    "extras": {
      "author": "CG.oum (https://sketchfab.com/ayoub.oumahou)",
      "license": "CC-BY-4.0 (http://creativecommons.org/licenses/by/4.0/)",
      "source": "https://sketchfab.com/3d-models/death-note-38e9f0d0c6944557b6ecf2003f5aa4bb",
      "title": "Death Note"
    },
    "generator": "Sketchfab-12.66.0",
    "version": "2.0"
  },
  "bufferViews": [
    {
      "buffer": 0,
      "byteLength": 6720,
      "name": "floatBufferViews",
      "target": 34963
    },
    {
      "buffer": 0,
      "byteLength": 13888,
      "byteOffset": 6720,
      "byteStride": 8,
      "name": "floatBufferViews",
      "target": 34962
    },
    {
      "buffer": 0,
      "byteLength": 22080,
      "byteOffset": 20608,
      "byteStride": 12,
      "name": "floatBufferViews",
      "target": 34962
    },
    {
      "buffer": 0,
      "byteLength": 4352,
      "byteOffset": 42688,
      "byteStride": 16,
      "name": "floatBufferViews",
      "target": 34962
    }
  ],
  "buffers": [
    {
      "byteLength": 47040,
      "uri": "scene.bin"
    }
  ],
  "images": [
    {
      "uri": "textures/DEATH_NOTE_baseColor.png"
    },
    {
      "uri": "textures/DEATH_NOTE_metallicRoughness.png"
    },
    {
      "uri": "textures/DEATH_NOTE_normal.png"
    },
    {
      "uri": "textures/PAPERS_baseColor.png"
    }
  ],
  "materials": [
    {
      "doubleSided": true,
      "name": "DEATH_NOTE",
      "normalTexture": {
        "index": 2
      },
      "pbrMetallicRoughness": {
        "baseColorTexture": {
          "index": 0
        },
        "metallicFactor": 0.0,
        "metallicRoughnessTexture": {
          "index": 1
        }
      }
    },
    {
      "doubleSided": true,
      "name": "PAPERS",
      "pbrMetallicRoughness": {
        "baseColorTexture": {
          "index": 3
        },
        "metallicFactor": 0.0,
        "roughnessFactor": 0.8211145618000169
      }
    }
  ],
  "meshes": [
    {
      "name": "Cube_DEATH NOTE_0",
      "primitives": [
        {
          "attributes": {
            "NORMAL": 1,
            "POSITION": 0,
            "TANGENT": 2,
            "TEXCOORD_0": 3,
            "TEXCOORD_1": 4,
            "TEXCOORD_2": 5,
            "TEXCOORD_3": 6
          },
          "indices": 7,
          "material": 0,
          "mode": 4
        }
      ]
    },
    {
      "name": "Plane_PAPERS_0",
      "primitives": [
        {
          "attributes": {
            "NORMAL": 9,
            "POSITION": 8,
            "TEXCOORD_0": 10
          },
          "indices": 11,
          "material": 1,
          "mode": 4
        }
      ]
    }
  ],
  "nodes": [
    {
      "children": [
        1
      ],
      "matrix": [
        1.0,
        0.0,
        0.0,
        0.0,
        0.0,
        2.220446049250313e-16,
        -1.0,
        0.0,
        0.0,
        1.0,
        2.220446049250313e-16,
        0.0,
        0.0,
        0.0,
        0.0,
        1.0
      ],
      "name": "Sketchfab_model"
    },
    {
      "children": [
        2
      ],
      "matrix": [
        1.0,
        0.0,
        0.0,
        0.0,
        0.0,
        0.0,
        1.0,
        0.0,
        0.0,
        -1.0,
        0.0,
        0.0,
        0.0,
        0.0,
        0.0,
        1.0
      ],
      "name": "DEATH NOTE FBX.fbx"
    },
    {
      "children": [
        3,
        5
      ],
      "name": "RootNode"
    },
    {
      "children": [
        4
      ],
      "matrix": [
        100.0,
        0.0,
        0.0,
        0.0,
        0.0,
        -99.99999999999889,
        1.5099579909783709e-05,
        0.0,
        0.0,
        -1.5099579909783709e-05,
        -99.99999999999889,
        0.0,
        0.0,
        11.670245170593262,
        3.434265375137329,
        1.0
      ],
      "name": "Cube"
    },
    {
      "mesh": 0,
      "name": "Cube_DEATH NOTE_0"
    },
    {
      "children": [
        6
      ],
      "matrix": [
        8.870459427065788e-06,
        0.0,
        202.93244934082009,
        0.0,
        99.99999999999856,
        -1.629206793918314e-05,
        -4.371138984105016e-06,
        0.0,
        1.6292067955836487e-05,
        99.99999999999866,
        -7.105427357601002e-13,
        0.0,
        0.0,
        18.53877830505371,
        3.434265375137329,
        1.0
      ],
      "name": "Plane"
    },
    {
      "mesh": 1,
      "name": "Plane_PAPERS_0"
    }
  ],
  "samplers": [
    {
      "magFilter": 9729,
      "minFilter": 9987,
      "wrapS": 10497,
      "wrapT": 10497
    }
  ],
  "scene": 0,
  "scenes": [
    {
      "name": "Sketchfab_Scene",
      "nodes": [
        0
      ]
    }
  ],
  "textures": [
    {
      "sampler": 0,
      "source": 0
    },
    {
      "sampler": 0,
      "source": 1
    },
    {
      "sampler": 0,
      "source": 2
    },
    {
      "sampler": 0,
      "source": 3
    }
  ]
}
