{
  "accessors": [
    {
      "bufferView": 2,
      "componentType": 5126,
      "count": 116,
      "max": [
        19.09145736694336,
        43.0,
        17.154916763305664
      ],
      "min": [
        -19.09145736694336,
        42.0,
        -17.154916763305664
      ],
      "type": "VEC3"
    },
    {
      "bufferView": 2,
      "byteOffset": 1392,
      "componentType": 5126,
      "count": 116,
      "max": [
        0.9900555610656738,
        1.0,
        1.0
      ],
      "min": [
        -0.9900555610656738,
        -1.0,
        -1.0
      ],
      "type": "VEC3"
    },
    {
      "bufferView": 3,
      "componentType": 5126,
      "count": 116,
      "max": [
        6.069987648515962e-05,
        1.0,
        0.9988329410552979,
        1.0
      ],
      "min": [
        -0.04830573871731758,
        -1.0,
        -0.9988328814506531,
        1.0
      ],
      "type": "VEC4"
    },
    {
      "bufferView": 1,
      "componentType": 5126,
      "count": 116,
      "max": [
        0.9961559772491455,
        0.9730090498924255
      ],
      "min": [
        0.003662109375,
        0.003666996955871582
      ],
      "type": "VEC2"
    },
    {
      "bufferView": 0,
      "componentType": 5125,
      "count": 372,
      "type": "SCALAR"
    },
    {
      "bufferView": 2,
      "byteOffset": 2784,
      "componentType": 5126,
      "count": 440,
      "max": [
        22.637142181396484,
        71.85765075683594,
        19.273361206054688
      ],
      "min": [
        -22.688217163085938,
        0.0028567276895046234,
        -17.472450256347656
      ],
      "type": "VEC3"
    },
    {
      "bufferView": 2,
      "byteOffset": 8064,
      "componentType": 5126,
      "count": 440,
      "max": [
        0.7660451531410217,
        1.0,
        0.7679989337921143
      ],
      "min": [
        -0.7660437822341919,
        -1.0,
        -0.7684969305992126
      ],
      "type": "VEC3"
    },
    {
      "bufferView": 3,
      "byteOffset": 1856,
      "componentType": 5126,
      "count": 440,
      "max": [
        0.7679988145828247,
        1.0,
        0.7670789361000061,
        1.0
      ],
      "min": [
        -0.7684968709945679,
        -0.9999947547912598,
        -0.7675292491912842,
        1.0
      ],
      "type": "VEC4"
    },
    {
      "bufferView": 1,
      "byteOffset": 928,
      "componentType": 5126,
      "count": 440,
      "max": [
        0.9968400597572327,
        0.904326319694519
      ],
      "min": [
        0.00343515258282423,
        0.0035688860807567835
      ],
      "type": "VEC2"
    },
    {
      "bufferView": 0,
      "byteOffset": 1488,
      "componentType": 5125,
      "count": 660,
      "type": "SCALAR"
    },
    {
      "bufferView": 2,
      "byteOffset": 13344,
      "componentType": 5126,
      "count": 96,
      "max": [
        22.189205169677734,
        78.25389099121094,
        23.783065795898438
      ],
      "min": [
        -22.189205169677734,
        59.03577423095703,
        11.208924293518066
      ],
      "type": "VEC3"
    },
    {
      "bufferView": 2,
      "byteOffset": 14496,
      "componentType": 5126,
      "count": 96,
      "max": [
        0.8748399019241333,
        0.3546449542045593,
        0.9999976754188538
      ],
      "min": [
        -0.8748399615287781,
        -0.25504735112190247,
        -0.9980307221412659
      ],
      "type": "VEC3"
    },
    {
      "bufferView": 3,
      "byteOffset": 8896,
      "componentType": 5126,
      "count": 96,
      "max": [
        0.9673747420310974,
        0.999997615814209,
        0.6343505382537842,
        1.0
      ],
      "min": [
        -0.9333681464195251,
        -0.9982175827026367,
        -0.8502808809280396,
        1.0
      ],
      "type": "VEC4"
    },
    {
      "bufferView": 1,
      "byteOffset": 4448,
      "componentType": 5126,
      "count": 96,
      "max": [
        0.7199421525001526,
        0.8995636105537415
      ],
      "min": [
        0.1558467149734497,
        0.0036659538745880127
      ],
      "type": "VEC2"
    },
    {
      "bufferView": 0,
      "byteOffset": 4128,
      "componentType": 5125,
      "count": 312,
      "type": "SCALAR"
    },
    {
      "bufferView": 2,
      "byteOffset": 15648,
      "componentType": 5126,
      "count": 210,
      "max": [
        17.092212677001953,
        48.4747428894043,
        15.704524040222168
      ],
      "min": [
        -17.063798904418945,
        42.75080490112305,
        -16.127635955810547
      ],
      "type": "VEC3"
    },
    {
      "bufferView": 2,
      "byteOffset": 18168,
      "componentType": 5126,
      "count": 210,
      "max": [
        0.9979029297828674,
        0.999977707862854,
        0.9998660683631897
      ],
      "min": [
        -0.9979925155639648,
        -1.0,
        -0.9945283532142639
      ],
      "type": "VEC3"
    },
    {
      "bufferView": 3,
      "byteOffset": 10432,
      "componentType": 5126,
      "count": 210,
      "max": [
        0.9485583305358887,
        0.9999507665634155,
        1.0,
        1.0
      ],
      "min": [
        -0.950664222240448,
        -0.9998072981834412,
        -0.9999998211860657,
        1.0
      ],
      "type": "VEC4"
    },
    {
      "bufferView": 1,
      "byteOffset": 5216,
      "componentType": 5126,
      "count": 210,
      "max": [
        0.9515531063079834,
        0.8440096974372864
      ],
      "min": [
        0.003662109375,
        0.0036678314208984375
      ],
      "type": "VEC2"
    },
    {
      "bufferView": 0,
      "byteOffset": 5376,
      "componentType": 5125,
      "count": 864,
      "type": "SCALAR"
    }
  ],
  "asset": {
    "extras": {
      "author": "PupUpProductions (https://sketchfab.com/PupUpProductions)",
      "license": "CC-BY-4.0 (http://creativecommons.org/licenses/by/4.0/)",
      "source": "https://sketchfab.com/3d-models/dusky-pink-stylised-dining-chair-4e955bf650fe4916908313bc00b7f2fc",
      "title": "Dusky pink stylised dining chair"
    },
    "generator": "Sketchfab-14.39.1",
    "version": "2.0"
  },
  "bufferViews": [
    {
      "buffer": 0,
      "byteLength": 8832,
      "name": "floatBufferViews",
      "target": 34963
    },
    {
      "buffer": 0,
      "byteLength": 6896,
      "byteOffset": 8832,
      "byteStride": 8,
      "name": "floatBufferViews",
      "target": 34962
    },
    {
      "buffer": 0,
      "byteLength": 20688,
      "byteOffset": 15728,
      "byteStride": 12,
      "name": "floatBufferViews",
      "target": 34962
    },
    {
      "buffer": 0,
      "byteLength": 13792,
      "byteOffset": 36416,
      "byteStride": 16,
      "name": "floatBufferViews",
      "target": 34962
    }
  ],
  "buffers": [
    {
      "byteLength": 50208,
      "uri": "scene.bin"
    }
  ],
  "images": [
    {
      "uri": "textures/DiningChairMat_baseColor.png"
    },
    {
      "uri": "textures/DiningChairMat_metallicRoughness.png"
    },
    {
      "uri": "textures/DiningChairMat_normal.png"
    }
  ],
  "materials": [
    {
      "doubleSided": true,
      "name": "DiningChairMat",
      "normalTexture": {
        "index": 2
      },
      "occlusionTexture": {
        "index": 1
      },
      "pbrMetallicRoughness": {
        "baseColorTexture": {
          "index": 0
        },
        "metallicFactor": 0.0,
        "metallicRoughnessTexture": {
          "index": 1
        }
      }
    }
  ],
  "meshes": [
    {
      "name": "Seat_DiningChairMat_0",
      "primitives": [
        {
          "attributes": {
            "NORMAL": 1,
            "POSITION": 0,
            "TANGENT": 2,
            "TEXCOORD_0": 3
          },
          "indices": 4,
          "material": 0,
          "mode": 4
        }
      ]
    },
    {
      "name": "ChairLegs_DiningChairMat_0",
      "primitives": [
        {
          "attributes": {
            "NORMAL": 6,
            "POSITION": 5,
            "TANGENT": 7,
            "TEXCOORD_0": 8
          },
          "indices": 9,
          "material": 0,
          "mode": 4
        }
      ]
    },
    {
      "name": "ChairBack_DiningChairMat_0",
      "primitives": [
        {
          "attributes": {
            "NORMAL": 11,
            "POSITION": 10,
            "TANGENT": 12,
            "TEXCOORD_0": 13
          },
          "indices": 14,
          "material": 0,
          "mode": 4
        }
      ]
    },
    {
      "name": "Cushion_DiningChairMat_0",
      "primitives": [
        {
          "attributes": {
            "NORMAL": 16,
            "POSITION": 15,
            "TANGENT": 17,
            "TEXCOORD_0": 18
          },
          "indices": 19,
          "material": 0,
          "mode": 4
        }
      ]
    }
  ],
  "nodes": [
    {
      "children": [
        1
      ],
      "matrix": [
        1.0,
        0.0,
        0.0,
        0.0,
        0.0,
        2.220446049250313e-16,
        -1.0,
        0.0,
        0.0,
        1.0,
        2.220446049250313e-16,
        0.0,
        0.0,
        0.0,
        0.0,
        1.0
      ],
      "name": "Sketchfab_model"
    },
    {
      "children": [
        2
      ],
      "matrix": [
        0.10000000149011612,
        0.0,
        0.0,
        0.0,
        0.0,
        0.0,
        0.10000000149011612,
        0.0,
        0.0,
        -0.10000000149011612,
        0.0,
        0.0,
        0.0,
        0.0,
        0.0,
        1.0
      ],
      "name": "DiningChair_LP.fbx"
    },
    {
      "children": [
        3
      ],
      "name": "RootNode"
    },
    {
      "children": [
        4,
        6,
        8,
        10
      ],
      "matrix": [
        0.10000000149011612,
        0.0,
        0.0,
        0.0,
        0.0,
        0.10000000149011612,
        0.0,
        0.0,
        0.0,
        0.0,
        0.10000000149011612,
        0.0,
        0.0,
        0.0,
        0.0,
        1.0
      ],
      "name": "DiningChair"
    },
    {
      "children": [
        5
      ],
      "name": "Seat"
    },
    {
      "mesh": 0,
      "name": "Seat_DiningChairMat_0"
    },
    {
      "children": [
        7
      ],
      "name": "ChairLegs"
    },
    {
      "mesh": 1,
      "name": "ChairLegs_DiningChairMat_0"
    },
    {
      "children": [
        9
      ],
      "name": "ChairBack"
    },
    {
      "mesh": 2,
      "name": "ChairBack_DiningChairMat_0"
    },
    {
      "children": [
        11
      ],
      "name": "Cushion"
    },
    {
      "mesh": 3,
      "name": "Cushion_DiningChairMat_0"
    }
  ],
  "samplers": [
    {
      "magFilter": 9729,
      "minFilter": 9987,
      "wrapS": 10497,
      "wrapT": 10497
    }
  ],
  "scene": 0,
  "scenes": [
    {
      "name": "Sketchfab_Scene",
      "nodes": [
        0
      ]
    }
  ],
  "textures": [
    {
      "sampler": 0,
      "source": 0
    },
    {
      "sampler": 0,
      "source": 1
    },
    {
      "sampler": 0,
      "source": 2
    }
  ]
}
