{
  "accessors": [
    {
      "bufferView": 2,
      "componentType": 5126,
      "count": 16399,
      "max": [
        0.509880006313324,
        0.2499304562807083,
        0.178428515791893
      ],
      "min": [
        -0.558064877986908,
        -0.3745889663696289,
        -0.35893571376800537
      ],
      "type": "VEC3"
    },
    {
      "bufferView": 2,
      "byteOffset": 196788,
      "componentType": 5126,
      "count": 16399,
      "max": [
        0.9999797940254211,
        0.9999974966049194,
        0.9998898506164551
      ],
      "min": [
        -0.9998084902763367,
        -0.9995921850204468,
        -0.999911367893219
      ],
      "type": "VEC3"
    },
    {
      "bufferView": 1,
      "componentType": 5126,
      "count": 16399,
      "max": [
        0.9957354068756104,
        0.9999430179595947
      ],
      "min": [
        0.0004619179235305637,
        5.2611321734730154e-05
      ],
      "type": "VEC2"
    },
    {
      "bufferView": 0,
      "componentType": 5125,
      "count": 75000,
      "type": "SCALAR"
    }
  ],
  "asset": {
    "extras": {
      "author": "小編米奇 (https://sketchfab.com/mickey9801)",
      "license": "CC-BY-NC-4.0 (http://creativecommons.org/licenses/by-nc/4.0/)",
      "source": "https://sketchfab.com/3d-models/photocatch-test-rem-figure-7bcc16a6abd5428a82f13ec6af7e8b0d",
      "title": "PhotoCatch Test - Rem Figure"
    },
    "generator": "Sketchfab-12.67.0",
    "version": "2.0"
  },
  "bufferViews": [
    {
      "buffer": 0,
      "byteLength": 300000,
      "name": "floatBufferViews",
      "target": 34963
    },
    {
      "buffer": 0,
      "byteLength": 131192,
      "byteOffset": 300000,
      "byteStride": 8,
      "name": "floatBufferViews",
      "target": 34962
    },
    {
      "buffer": 0,
      "byteLength": 393576,
      "byteOffset": 431192,
      "byteStride": 12,
      "name": "floatBufferViews",
      "target": 34962
    }
  ],
  "buffers": [
    {
      "byteLength": 824768,
      "uri": "scene.bin"
    }
  ],
  "extensionsUsed": [
    "KHR_materials_unlit"
  ],
  "images": [
    {
      "uri": "textures/material_baseColor.png"
    }
  ],
  "materials": [
    {
      "extensions": {
        "KHR_materials_unlit": {}
      },
      "name": "material",
      "pbrMetallicRoughness": {
        "baseColorTexture": {
          "index": 0
        },
        "metallicFactor": 0.0
      }
    }
  ],
  "meshes": [
    {
      "name": "g0",
      "primitives": [
        {
          "attributes": {
            "NORMAL": 1,
            "POSITION": 0,
            "TEXCOORD_0": 2
          },
          "indices": 3,
          "material": 0,
          "mode": 4
        }
      ]
    }
  ],
  "nodes": [
    {
      "children": [
        1
      ],
      "matrix": [
        -2.803643321209272e-16,
        1.2626487016677856,
        2.803643321209272e-16,
        0.0,
        2.0304939420001707e-16,
        2.8036433212092723e-16,
        -1.2626487016677856,
        0.0,
        -1.2626487016677856,
        -2.8036433212092713e-16,
        -2.0304939420001714e-16,
        0.0,
        -0.08642163127660751,
        -0.03823699802160263,
        -5.012368254266933e-17,
        1.0
      ],
      "name": "Sketchfab_model"
    },
    {
      "children": [
        2
      ],
      "matrix": [
        1.0,
        0.0,
        0.0,
        0.0,
        0.0,
        2.220446049250313e-16,
        1.0,
        0.0,
        0.0,
        -1.0,
        2.220446049250313e-16,
        0.0,
        0.0,
        0.0,
        0.0,
        1.0
      ],
      "name": "USDRoot"
    },
    {
      "children": [
        3
      ],
      "name": "baked_mesh"
    },
    {
      "children": [
        4
      ],
      "name": "Geom"
    },
    {
      "mesh": 0,
      "name": "g0"
    }
  ],
  "samplers": [
    {
      "magFilter": 9729,
      "minFilter": 9987,
      "wrapS": 10497,
      "wrapT": 10497
    }
  ],
  "scene": 0,
  "scenes": [
    {
      "name": "Sketchfab_Scene",
      "nodes": [
        0
      ]
    }
  ],
  "textures": [
    {
      "sampler": 0,
      "source": 0
    }
  ]
}
