{
  "accessors": [
    {
      "bufferView": 1,
      "componentType": 5126,
      "count": 31279,
      "max": [
        45.0423698425293,
        20.111753463745117,
        4.399940013885498
      ],
      "min": [
        -42.824493408203125,
        -11.478681564331055,
        -10.893855094909668
      ],
      "type": "VEC3"
    },
    {
      "bufferView": 1,
      "byteOffset": 375348,
      "componentType": 5126,
      "count": 31279,
      "max": [
        0.9999936819076538,
        1.0,
        1.0
      ],
      "min": [
        -0.9999945163726807,
        -1.0,
        -1.0
      ],
      "type": "VEC3"
    },
    {
      "bufferView": 2,
      "componentType": 5126,
      "count": 31279,
      "max": [
        0.7372549176216125,
        0.7372549176216125,
        0.7372549176216125,
        1.0
      ],
      "min": [
        0.6117647290229797,
        0.6117647290229797,
        0.6117647290229797,
        1.0
      ],
      "type": "VEC4"
    },
    {
      "bufferView": 0,
      "componentType": 5125,
      "count": 147345,
      "type": "SCALAR"
    },
    {
      "bufferView": 1,
      "byteOffset": 750696,
      "componentType": 5126,
      "count": 2048,
      "max": [
        0.9708220362663269,
        0.295418381690979,
        1.241044044494629
      ],
      "min": [
        -0.9708219170570374,
        -0.29542163014411926,
        -1.238110899925232
      ],
      "type": "VEC3"
    },
    {
      "bufferView": 1,
      "byteOffset": 775272,
      "componentType": 5126,
      "count": 2048,
      "max": [
        0.9999969005584717,
        1.0,
        1.0
      ],
      "min": [
        -0.9999969005584717,
        -1.0,
        -1.0
      ],
      "type": "VEC3"
    },
    {
      "bufferView": 0,
      "byteOffset": 589380,
      "componentType": 5125,
      "count": 12288,
      "type": "SCALAR"
    }
  ],
  "asset": {
    "extras": {
      "author": "ItzJustSamu (https://sketchfab.com/itzjustsamuel)",
      "license": "CC-BY-4.0 (http://creativecommons.org/licenses/by/4.0/)",
      "source": "https://sketchfab.com/3d-models/naruto-head-band-53af518a5cb04a8d86b5746268e15604",
      "title": "Naruto Head Band"
    },
    "generator": "Sketchfab-12.65.0",
    "version": "2.0"
  },
  "bufferViews": [
    {
      "buffer": 0,
      "byteLength": 638532,
      "name": "floatBufferViews",
      "target": 34963
    },
    {
      "buffer": 0,
      "byteLength": 799848,
      "byteOffset": 638532,
      "byteStride": 12,
      "name": "floatBufferViews",
      "target": 34962
    },
    {
      "buffer": 0,
      "byteLength": 500464,
      "byteOffset": 1438380,
      "byteStride": 16,
      "name": "floatBufferViews",
      "target": 34962
    }
  ],
  "buffers": [
    {
      "byteLength": 1938844,
      "uri": "scene.bin"
    }
  ],
  "materials": [
    {
      "doubleSided": true,
      "name": "Scene_-_Root_COLOR_0",
      "pbrMetallicRoughness": {
        "roughnessFactor": 0.191667
      }
    },
    {
      "doubleSided": true,
      "name": "Material.001",
      "pbrMetallicRoughness": {
        "baseColorFactor": [
          0.0,
          0.0,
          0.0,
          1.0
        ],
        "metallicFactor": 0.6
      }
    }
  ],
  "meshes": [
    {
      "name": "Object_0",
      "primitives": [
        {
          "attributes": {
            "COLOR_0": 2,
            "NORMAL": 1,
            "POSITION": 0
          },
          "indices": 3,
          "material": 0,
          "mode": 4
        }
      ]
    },
    {
      "name": "Object_1",
      "primitives": [
        {
          "attributes": {
            "NORMAL": 5,
            "POSITION": 4
          },
          "indices": 6,
          "material": 1,
          "mode": 4
        }
      ]
    }
  ],
  "nodes": [
    {
      "children": [
        1
      ],
      "matrix": [
        1.0,
        0.0,
        0.0,
        0.0,
        0.0,
        2.220446049250313e-16,
        -1.0,
        0.0,
        0.0,
        1.0,
        2.220446049250313e-16,
        0.0,
        0.0,
        0.0,
        0.0,
        1.0
      ],
      "name": "Sketchfab_model"
    },
    {
      "children": [
        2
      ],
      "name": "root"
    },
    {
      "children": [
        3,
        5
      ],
      "matrix": [
        1.0,
        0.0,
        0.0,
        0.0,
        0.0,
        2.220446049250313e-16,
        1.0,
        0.0,
        0.0,
        -1.0,
        2.220446049250313e-16,
        0.0,
        0.0,
        0.0,
        0.0,
        1.0
      ],
      "name": "GLTF_SceneRootNode"
    },
    {
      "children": [
        4
      ],
      "matrix": [
        0.5,
        0.0,
        0.0,
        0.0,
        0.0,
        0.5,
        0.0,
        0.0,
        0.0,
        0.0,
        0.5,
        0.0,
        0.0,
        0.0,
        0.0,
        1.0
      ],
      "name": "Object_3_1"
    },
    {
      "mesh": 0,
      "name": "Object_4"
    },
    {
      "children": [
        6
      ],
      "matrix": [
        -39.99982874735107,
        0.0,
        -0.11704777907838888,
        0.0,
        0.0,
        40.0,
        0.0,
        0.0,
        0.11704777907838888,
        0.0,
        -39.99982874735107,
        0.0,
        0.0,
        1.663215160369873,
        -51.16111373901367,
        1.0
      ],
      "name": "Object_20_2"
    },
    {
      "mesh": 1,
      "name": "Object_6"
    }
  ],
  "scene": 0,
  "scenes": [
    {
      "name": "Sketchfab_Scene",
      "nodes": [
        0
      ]
    }
  ]
}
