{
  "accessors": [
    {
      "bufferView": 2,
      "componentType": 5126,
      "count": 132,
      "max": [
        4.521338939666748,
        2.8155369758605957,
        0.5094919800758362
      ],
      "min": [
        -4.432973861694336,
        -2.8155369758605957,
        0.4682140052318573
      ],
      "type": "VEC3"
    },
    {
      "bufferView": 2,
      "byteOffset": 1584,
      "componentType": 5126,
      "count": 132,
      "max": [
        1.0,
        0.005556706339120865,
        1.0
      ],
      "min": [
        -1.0,
        -0.005483231507241726,
        -1.0
      ],
      "type": "VEC3"
    },
    {
      "bufferView": 1,
      "componentType": 5126,
      "count": 132,
      "max": [
        0.9774770140647888,
        0.9765490293502808
      ],
      "min": [
        0.1479319930076599,
        0.3353070020675659
      ],
      "type": "VEC2"
    },
    {
      "bufferView": 0,
      "componentType": 5125,
      "count": 342,
      "type": "SCALAR"
    },
    {
      "bufferView": 2,
      "byteOffset": 3168,
      "componentType": 5126,
      "count": 344,
      "max": [
        4.521338939666748,
        2.8155369758605957,
        0.93190598487854
      ],
      "min": [
        -4.432973861694336,
        -2.8155369758605957,
        0.4682140052318573
      ],
      "type": "VEC3"
    },
    {
      "bufferView": 2,
      "byteOffset": 7296,
      "componentType": 5126,
      "count": 344,
      "max": [
        1.0,
        1.0,
        0.9999468922615051
      ],
      "min": [
        -1.0,
        -1.0,
        -1.0
      ],
      "type": "VEC3"
    },
    {
      "bufferView": 1,
      "byteOffset": 1056,
      "componentType": 5126,
      "count": 344,
      "max": [
        0.9774770140647888,
        0.9751549959182739
      ],
      "min": [
        0.14809200167655945,
        0.025008000433444977
      ],
      "type": "VEC2"
    },
    {
      "bufferView": 0,
      "byteOffset": 1368,
      "componentType": 5125,
      "count": 1128,
      "type": "SCALAR"
    }
  ],
  "asset": {
    "extras": {
      "author": "Mardukblake (https://sketchfab.com/Mardukblake)",
      "license": "CC-BY-4.0 (http://creativecommons.org/licenses/by/4.0/)",
      "source": "https://sketchfab.com/3d-models/dark-magazine-e9c428ceeee6415599715bfc8a145405",
      "title": "Dark magazine"
    },
    "generator": "Sketchfab-12.66.0",
    "version": "2.0"
  },
  "bufferViews": [
    {
      "buffer": 0,
      "byteLength": 5880,
      "name": "floatBufferViews",
      "target": 34963
    },
    {
      "buffer": 0,
      "byteLength": 3808,
      "byteOffset": 5880,
      "byteStride": 8,
      "name": "floatBufferViews",
      "target": 34962
    },
    {
      "buffer": 0,
      "byteLength": 11424,
      "byteOffset": 9688,
      "byteStride": 12,
      "name": "floatBufferViews",
      "target": 34962
    }
  ],
  "buffers": [
    {
      "byteLength": 21112,
      "uri": "scene.bin"
    }
  ],
  "images": [
    {
      "uri": "textures/lambert2SG_baseColor.png"
    }
  ],
  "materials": [
    {
      "doubleSided": true,
      "name": "lambert2SG",
      "pbrMetallicRoughness": {
        "baseColorTexture": {
          "index": 0
        },
        "metallicFactor": 0.0,
        "roughnessFactor": 0.6
      }
    }
  ],
  "meshes": [
    {
      "name": "Object_0",
      "primitives": [
        {
          "attributes": {
            "NORMAL": 1,
            "POSITION": 0,
            "TEXCOORD_0": 2
          },
          "indices": 3,
          "material": 0,
          "mode": 4
        }
      ]
    },
    {
      "name": "Object_1",
      "primitives": [
        {
          "attributes": {
            "NORMAL": 5,
            "POSITION": 4,
            "TEXCOORD_0": 6
          },
          "indices": 7,
          "material": 0,
          "mode": 4
        }
      ]
    }
  ],
  "nodes": [
    {
      "children": [
        1
      ],
      "matrix": [
        1.0,
        -1.6081226229577294e-16,
        1.608122622957729e-16,
        0.0,
        1.6081226229577292e-16,
        3.828568672208042e-16,
        -1.0,
        0.0,
        1.6081226229577292e-16,
        1.0,
        3.828568672208042e-16,
        0.0,
        -1.1102230246251565e-16,
        2.6573319334236697e-32,
        -1.1967559105166559e-16,
        1.0
      ],
      "name": "Sketchfab_model"
    },
    {
      "children": [
        2,
        3
      ],
      "name": "revista.obj.cleaner.materialmerger.gles"
    },
    {
      "mesh": 0,
      "name": "Object_2"
    },
    {
      "mesh": 1,
      "name": "Object_3"
    }
  ],
  "samplers": [
    {
      "magFilter": 9729,
      "minFilter": 9987,
      "wrapS": 10497,
      "wrapT": 10497
    }
  ],
  "scene": 0,
  "scenes": [
    {
      "name": "Sketchfab_Scene",
      "nodes": [
        0
      ]
    }
  ],
  "textures": [
    {
      "sampler": 0,
      "source": 0
    }
  ]
}
